<svg width="508" height="160" viewBox="0 0 508 160" fill="none" xmlns="http://www.w3.org/2000/svg">
<g filter="url(#filter0_dd_2002_5280)">
<path d="M130 80C130 53.4903 151.49 32 178 32C204.51 32 226 53.4903 226 80C226 106.51 204.51 128 178 128C151.49 128 130 106.51 130 80Z" fill="url(#paint0_linear_2002_5280)"/>
<path d="M131 80C131 54.0426 152.043 33 178 33C203.957 33 225 54.0426 225 80C225 105.957 203.957 127 178 127C152.043 127 131 105.957 131 80Z" stroke="url(#paint1_linear_2002_5280)" stroke-width="2"/>
<path d="M188.8 80.0002C188.8 81.9922 184 83.6002 178 83.6002C172 83.6002 167.2 81.9922 167.2 80.0002" stroke="#493FC3" stroke-width="3" stroke-linecap="round" stroke-linejoin="round"/>
<path d="M178 75.2002C183.965 75.2002 188.8 73.5885 188.8 71.6002C188.8 69.612 183.965 68.0002 178 68.0002C172.035 68.0002 167.2 69.612 167.2 71.6002C167.2 73.5885 172.035 75.2002 178 75.2002Z" stroke="#493FC3" stroke-width="3" stroke-linecap="round" stroke-linejoin="round"/>
<path d="M167.2 71.5999V88.3999C167.2 90.3919 172 91.9999 178 91.9999C184 91.9999 188.8 90.3919 188.8 88.3999V71.5999" stroke="#493FC3" stroke-width="3" stroke-linecap="round" stroke-linejoin="round"/>
</g>
<path d="M244 87.5002L249.833 93.3335M244 87.5002L249.833 81.6668M244 87.5002L264 87.5002M264 72.5002L258.167 78.3335M264 72.5002L258.167 66.6668M264 72.5002L244 72.5002" stroke="#0D0D12" stroke-width="3" stroke-linecap="round" stroke-linejoin="round"/>
<g filter="url(#filter1_dd_2002_5280)">
<path d="M282 80C282 53.4903 303.49 32 330 32C356.51 32 378 53.4903 378 80C378 106.51 356.51 128 330 128C303.49 128 282 106.51 282 80Z" fill="url(#paint2_linear_2002_5280)"/>
<path d="M283 80C283 54.0426 304.043 33 330 33C355.957 33 377 54.0426 377 80C377 105.957 355.957 127 330 127C304.043 127 283 105.957 283 80Z" stroke="url(#paint3_linear_2002_5280)" stroke-width="2"/>
<path d="M330 92.0002C330 92.0002 339.6 87.2002 339.6 80.0002V71.6002L330 68.0002L320.4 71.6002V80.0002C320.4 87.2002 330 92.0002 330 92.0002Z" stroke="#493FC3" stroke-width="3" stroke-linecap="round" stroke-linejoin="round"/>
</g>
<path d="M24 16H89.3052L131 58" stroke="url(#paint4_linear_2002_5280)"/>
<path d="M485 16H420.305L379 58" stroke="url(#paint5_linear_2002_5280)"/>
<path d="M24 144H89.3052L131 102" stroke="url(#paint6_linear_2002_5280)"/>
<path d="M485 144H420.305L379 102" stroke="url(#paint7_linear_2002_5280)"/>
<defs>
<filter id="filter0_dd_2002_5280" x="114" y="24" width="128" height="128" filterUnits="userSpaceOnUse" color-interpolation-filters="sRGB">
<feFlood flood-opacity="0" result="BackgroundImageFix"/>
<feColorMatrix in="SourceAlpha" type="matrix" values="0 0 0 0 0 0 0 0 0 0 0 0 0 0 0 0 0 0 127 0" result="hardAlpha"/>
<feMorphology radius="2" operator="dilate" in="SourceAlpha" result="effect1_dropShadow_2002_5280"/>
<feOffset/>
<feComposite in2="hardAlpha" operator="out"/>
<feColorMatrix type="matrix" values="0 0 0 0 0.792157 0 0 0 0 0.831373 0 0 0 0 0.984314 0 0 0 1 0"/>
<feBlend mode="normal" in2="BackgroundImageFix" result="effect1_dropShadow_2002_5280"/>
<feColorMatrix in="SourceAlpha" type="matrix" values="0 0 0 0 0 0 0 0 0 0 0 0 0 0 0 0 0 0 127 0" result="hardAlpha"/>
<feOffset dy="8"/>
<feGaussianBlur stdDeviation="8"/>
<feComposite in2="hardAlpha" operator="out"/>
<feColorMatrix type="matrix" values="0 0 0 0 0.0509804 0 0 0 0 0.0509804 0 0 0 0 0.0705882 0 0 0 0.1 0"/>
<feBlend mode="normal" in2="effect1_dropShadow_2002_5280" result="effect2_dropShadow_2002_5280"/>
<feBlend mode="normal" in="SourceGraphic" in2="effect2_dropShadow_2002_5280" result="shape"/>
</filter>
<filter id="filter1_dd_2002_5280" x="266" y="24" width="128" height="128" filterUnits="userSpaceOnUse" color-interpolation-filters="sRGB">
<feFlood flood-opacity="0" result="BackgroundImageFix"/>
<feColorMatrix in="SourceAlpha" type="matrix" values="0 0 0 0 0 0 0 0 0 0 0 0 0 0 0 0 0 0 127 0" result="hardAlpha"/>
<feMorphology radius="2" operator="dilate" in="SourceAlpha" result="effect1_dropShadow_2002_5280"/>
<feOffset/>
<feComposite in2="hardAlpha" operator="out"/>
<feColorMatrix type="matrix" values="0 0 0 0 0.792157 0 0 0 0 0.831373 0 0 0 0 0.984314 0 0 0 1 0"/>
<feBlend mode="normal" in2="BackgroundImageFix" result="effect1_dropShadow_2002_5280"/>
<feColorMatrix in="SourceAlpha" type="matrix" values="0 0 0 0 0 0 0 0 0 0 0 0 0 0 0 0 0 0 127 0" result="hardAlpha"/>
<feOffset dy="8"/>
<feGaussianBlur stdDeviation="8"/>
<feComposite in2="hardAlpha" operator="out"/>
<feColorMatrix type="matrix" values="0 0 0 0 0.0509804 0 0 0 0 0.0509804 0 0 0 0 0.0705882 0 0 0 0.1 0"/>
<feBlend mode="normal" in2="effect1_dropShadow_2002_5280" result="effect2_dropShadow_2002_5280"/>
<feBlend mode="normal" in="SourceGraphic" in2="effect2_dropShadow_2002_5280" result="shape"/>
</filter>
<linearGradient id="paint0_linear_2002_5280" x1="178" y1="32" x2="178" y2="128" gradientUnits="userSpaceOnUse">
<stop stop-color="#E1E8FE"/>
<stop offset="1" stop-color="white"/>
</linearGradient>
<linearGradient id="paint1_linear_2002_5280" x1="178" y1="32" x2="178" y2="128" gradientUnits="userSpaceOnUse">
<stop stop-color="white"/>
<stop offset="1" stop-color="white" stop-opacity="0"/>
</linearGradient>
<linearGradient id="paint2_linear_2002_5280" x1="330" y1="32" x2="330" y2="128" gradientUnits="userSpaceOnUse">
<stop stop-color="#E1E8FE"/>
<stop offset="1" stop-color="white"/>
</linearGradient>
<linearGradient id="paint3_linear_2002_5280" x1="330" y1="32" x2="330" y2="128" gradientUnits="userSpaceOnUse">
<stop stop-color="white"/>
<stop offset="1" stop-color="white" stop-opacity="0"/>
</linearGradient>
<linearGradient id="paint4_linear_2002_5280" x1="33.5" y1="16" x2="123.5" y2="67.5" gradientUnits="userSpaceOnUse">
<stop stop-color="#F6F8FA"/>
<stop offset="1" stop-color="#4E46DC"/>
</linearGradient>
<linearGradient id="paint5_linear_2002_5280" x1="475.589" y1="16" x2="386.019" y2="66.7749" gradientUnits="userSpaceOnUse">
<stop stop-color="#F6F8FA"/>
<stop offset="1" stop-color="#4E46DC"/>
</linearGradient>
<linearGradient id="paint6_linear_2002_5280" x1="33.5" y1="144" x2="123.5" y2="92.5" gradientUnits="userSpaceOnUse">
<stop stop-color="#F6F8FA"/>
<stop offset="1" stop-color="#4E46DC"/>
</linearGradient>
<linearGradient id="paint7_linear_2002_5280" x1="475.589" y1="144" x2="386.019" y2="93.2251" gradientUnits="userSpaceOnUse">
<stop stop-color="#F6F8FA"/>
<stop offset="1" stop-color="#4E46DC"/>
</linearGradient>
</defs>
</svg>
