<svg width="40" height="40" viewBox="0 0 40 40" fill="none" xmlns="http://www.w3.org/2000/svg">
<g id="globe">
<path id="Icon" d="M35 20C35 28.2843 28.2843 35 20 35M35 20C35 11.7157 28.2843 5 20 5M35 20H5M20 35C11.7157 35 5 28.2843 5 20M20 35C23.7519 30.8925 25.8841 25.5619 26 20C25.8841 14.4381 23.7519 9.10753 20 5M20 35C16.2481 30.8925 14.1159 25.5619 14 20C14.1159 14.4381 16.2481 9.10753 20 5M5 20C5 11.7157 11.7157 5 20 5" stroke="#4E46DC" stroke-width="3" stroke-linecap="round" stroke-linejoin="round"/>
</g>
</svg>
