<svg width="82" height="24" viewBox="0 0 82 24" fill="none" xmlns="http://www.w3.org/2000/svg">
<g id="Company Logo">
<g id="Group">
<path id="Vector" d="M19.812 6.63145L20.7676 6.64916L23.3642 4.05251L23.4904 2.95305C21.4272 1.11865 18.7125 0 15.741 0C10.3596 0 5.82004 3.65995 4.47412 8.62082C4.75821 8.42454 5.36255 8.57138 5.36255 8.57138L10.5514 7.71911C10.5514 7.71911 10.82 7.27785 10.9528 7.30515C12.1401 6.00646 13.8468 5.18887 15.7403 5.18887C17.281 5.18887 18.6978 5.72975 19.812 6.63145Z" fill="#EA4335"/>
<path id="Vector_2" d="M27.0066 8.62853C26.4045 6.40451 25.1604 4.44172 23.4846 2.95117L19.8062 6.62957C21.2791 7.81979 22.2228 9.6387 22.2228 11.6746V12.3232C24.0108 12.3232 25.4659 13.7783 25.4659 15.5662C25.4659 17.3541 24.0108 18.8092 22.2221 18.8092H15.7368L15.0874 19.4615V23.3539L15.7368 23.9996H22.2221C26.8708 23.9996 30.654 20.2171 30.654 15.5677C30.654 12.6928 29.207 10.1515 27.0051 8.62926L27.0066 8.62853Z" fill="#4285F4"/>
<path id="Vector_3" d="M9.25457 23.9982H15.7355V18.8093H9.25604C8.77936 18.8093 8.32851 18.7038 7.92045 18.5186L6.98628 18.8049L4.38889 21.4022L4.16162 22.2789C5.57838 23.3569 7.34416 23.9982 9.25678 23.9996L9.25457 23.9982Z" fill="#34A853"/>
<path id="Vector_4" d="M9.25369 7.13477C4.60496 7.13477 0.821777 10.9172 0.821777 15.5667C0.821777 18.3043 2.13375 20.7401 4.16149 22.2815L7.92253 18.5205C6.7965 18.0106 6.01065 16.8801 6.01065 15.5667C6.01065 13.7788 7.46578 12.3236 9.25369 12.3236C10.5671 12.3236 11.6991 13.1095 12.2075 14.2355L15.9685 10.4745C14.4278 8.44748 11.9913 7.13477 9.25369 7.13477Z" fill="#FBBC05"/>
</g>
<g id="Group_2">
<path id="Vector_5" d="M42.0286 7.18663C42.0286 7.94223 41.8043 8.54362 41.3556 8.99226C40.8516 9.52649 40.1898 9.79287 39.3692 9.79287C38.5487 9.79287 37.9193 9.52133 37.3754 8.9775C36.8316 8.43367 36.5601 7.76366 36.5601 6.96821C36.5601 6.17276 36.8316 5.50275 37.3754 4.95893C37.9193 4.4151 38.5841 4.14355 39.3692 4.14355C39.7669 4.14355 40.1418 4.21365 40.4938 4.35533C40.8465 4.49627 41.1365 4.6955 41.363 4.95229L40.8649 5.4511C40.6989 5.24966 40.4834 5.09249 40.2193 4.97959C39.9544 4.86595 39.6718 4.80987 39.37 4.80987C38.7811 4.80987 38.2823 5.01427 37.8742 5.42233C37.4706 5.83555 37.2699 6.3506 37.2699 6.97116C37.2699 7.59173 37.4714 8.10678 37.8742 8.52C38.2823 8.92806 38.7804 9.13245 39.37 9.13245C39.9086 9.13245 40.3573 8.98119 40.7144 8.67939C41.0715 8.37759 41.2789 7.96142 41.3335 7.43309H39.37V6.78374H41.991C42.016 6.92468 42.0293 7.06119 42.0293 7.19179L42.0286 7.18663Z" fill="#5F6368"/>
<path id="Vector_6" d="M42.5054 7.82076C42.5054 7.25185 42.6839 6.78107 43.0411 6.40917C43.4034 6.03654 43.8594 5.85059 44.4084 5.85059C44.9574 5.85059 45.4105 6.03727 45.7676 6.40917C46.1299 6.78181 46.3114 7.25259 46.3114 7.82076C46.3114 8.38894 46.1299 8.86562 45.7676 9.23235C45.4105 9.60499 44.9574 9.79094 44.4084 9.79094C43.8594 9.79094 43.4034 9.60425 43.0411 9.23235C42.6839 8.85972 42.5054 8.38968 42.5054 7.82076ZM43.2005 7.82076C43.2005 8.21849 43.3163 8.54021 43.548 8.7874C43.7797 9.0346 44.0668 9.15783 44.4091 9.15783C44.7515 9.15783 45.0393 9.0346 45.2703 8.7874C45.5012 8.54021 45.6178 8.21849 45.6178 7.82076C45.6178 7.42304 45.502 7.10796 45.2703 6.86224C45.0341 6.61062 44.7471 6.48444 44.4091 6.48444C44.0712 6.48444 43.7849 6.61062 43.548 6.86224C43.3171 7.10943 43.2005 7.4282 43.2005 7.82076Z" fill="#5F6368"/>
<path id="Vector_7" d="M46.7358 7.82076C46.7358 7.25185 46.9144 6.78107 47.2716 6.40917C47.6339 6.03654 48.0899 5.85059 48.6389 5.85059C49.1879 5.85059 49.6409 6.03727 49.9981 6.40917C50.3604 6.78181 50.5419 7.25259 50.5419 7.82076C50.5419 8.38894 50.3604 8.86562 49.9981 9.23235C49.6409 9.60499 49.1879 9.79094 48.6389 9.79094C48.0899 9.79094 47.6339 9.60425 47.2716 9.23235C46.9144 8.85972 46.7358 8.38968 46.7358 7.82076ZM47.4309 7.82076C47.4309 8.21849 47.5468 8.54021 47.7785 8.7874C48.0102 9.0346 48.2972 9.15783 48.6396 9.15783C48.982 9.15783 49.2698 9.0346 49.5007 8.7874C49.7317 8.54021 49.8483 8.21849 49.8483 7.82076C49.8483 7.42304 49.7324 7.10796 49.5007 6.86224C49.2646 6.61062 48.9776 6.48444 48.6396 6.48444C48.3016 6.48444 48.0153 6.61062 47.7785 6.86224C47.5468 7.10943 47.4309 7.4282 47.4309 7.82076Z" fill="#5F6368"/>
<path id="Vector_8" d="M52.813 11.4246C52.6057 11.4246 52.4124 11.3981 52.2308 11.3457C52.0493 11.2933 51.884 11.2188 51.7357 11.1228C51.5874 11.0269 51.4605 10.914 51.3542 10.7827C51.2487 10.6521 51.1675 10.5052 51.1122 10.3444L51.7697 10.0728C51.8449 10.2898 51.9755 10.4632 52.1622 10.5945C52.3489 10.7251 52.5644 10.7908 52.8116 10.7908C53.1894 10.7908 53.4831 10.6779 53.6956 10.4514C53.9081 10.2248 54.0129 9.91269 54.0129 9.51497V9.1593H53.9826C53.852 9.35558 53.6742 9.51054 53.4506 9.62418C53.2263 9.73707 52.9835 9.79389 52.7223 9.79389C52.239 9.79389 51.8228 9.60573 51.476 9.22719C51.1336 8.83979 50.9624 8.3705 50.9624 7.82224C50.9624 7.27399 51.1336 6.80764 51.476 6.42467C51.8235 6.0417 52.2382 5.85059 52.7223 5.85059C52.9842 5.85059 53.227 5.9074 53.4506 6.0203C53.6742 6.13394 53.852 6.2889 53.9826 6.48518H54.0129V5.9716H54.6777V9.51423C54.6777 10.1082 54.5087 10.5738 54.1722 10.9118C53.8299 11.2542 53.3768 11.4254 52.813 11.4254V11.4246ZM52.8359 9.15857C53.1783 9.15857 53.458 9.03534 53.6749 8.78814C53.9014 8.54095 54.0151 8.21923 54.0151 7.8215C54.0151 7.42378 53.9014 7.1146 53.6749 6.86298C53.4535 6.61136 53.1739 6.48518 52.8359 6.48518C52.498 6.48518 52.2249 6.61136 51.9969 6.86298C51.7704 7.1146 51.6568 7.43411 51.6568 7.8215C51.6568 8.2089 51.7704 8.53431 51.9969 8.78003C52.2235 9.03239 52.5031 9.15857 52.8359 9.15857Z" fill="#5F6368"/>
<path id="Vector_9" d="M56.22 4.26465V9.67194H55.5249V4.26465H56.22Z" fill="#5F6368"/>
<path id="Vector_10" d="M58.6906 9.79265C58.1468 9.79265 57.6989 9.60596 57.3462 9.23407C56.9935 8.86143 56.8179 8.39065 56.8179 7.82247C56.8179 7.2543 56.9891 6.78943 57.3314 6.41384C57.6738 6.03899 58.1114 5.85156 58.6456 5.85156C59.1799 5.85156 59.6307 6.02939 59.9561 6.38358C60.2815 6.73925 60.4431 7.23585 60.4431 7.8756L60.435 7.95087H57.527C57.5366 8.31318 57.6576 8.60538 57.8893 8.82675C58.121 9.04812 58.3977 9.1588 58.7202 9.1588C59.1636 9.1588 59.5104 8.93743 59.7621 8.49396L60.3812 8.79576C60.2151 9.10789 59.9849 9.35213 59.6898 9.52775C59.3946 9.70337 59.0618 9.79265 58.6892 9.79265H58.6906ZM57.5801 7.37605H59.703C59.6824 7.11926 59.5783 6.90675 59.3894 6.73777C59.2013 6.5688 58.9474 6.48468 58.6309 6.48468C58.3689 6.48468 58.1439 6.56584 57.955 6.7267C57.7661 6.88756 57.6414 7.1045 57.5809 7.37605H57.5801Z" fill="#5F6368"/>
<path id="Vector_11" d="M65.2528 9.79263C64.4522 9.79263 63.7821 9.5233 63.2435 8.9839C62.7092 8.44524 62.4429 7.77302 62.4429 6.96724C62.4429 6.16146 62.7092 5.49219 63.2435 4.95795C63.7777 4.41413 64.4462 4.14258 65.2528 4.14258C66.0593 4.14258 66.73 4.43774 67.2392 5.02658L66.7411 5.5099C66.3537 5.04133 65.8571 4.80816 65.2528 4.80816C64.6484 4.80816 64.1526 5.0096 63.7497 5.4125C63.352 5.81022 63.1527 6.3297 63.1527 6.96798C63.1527 7.60625 63.352 8.12573 63.7497 8.52345C64.1518 8.92708 64.6536 9.12779 65.2528 9.12779C65.8829 9.12779 66.4282 8.86288 66.8924 8.33455L67.3978 8.82599C67.141 9.13369 66.8267 9.37056 66.4533 9.53953C66.0807 9.70851 65.6807 9.79263 65.2528 9.79263Z" fill="#5F6368"/>
<path id="Vector_12" d="M68.7122 4.26465V9.67194H68.0171V4.26465H68.7122Z" fill="#5F6368"/>
<path id="Vector_13" d="M69.3101 7.82076C69.3101 7.25185 69.4886 6.78107 69.8458 6.40917C70.2081 6.03654 70.6641 5.85059 71.2131 5.85059C71.7621 5.85059 72.2151 6.03727 72.5723 6.40917C72.9346 6.78181 73.1161 7.25259 73.1161 7.82076C73.1161 8.38894 72.9346 8.86562 72.5723 9.23235C72.2151 9.60499 71.7621 9.79094 71.2131 9.79094C70.6641 9.79094 70.2081 9.60425 69.8458 9.23235C69.4886 8.85972 69.3101 8.38968 69.3101 7.82076ZM70.0052 7.82076C70.0052 8.21849 70.121 8.54021 70.3527 8.7874C70.5844 9.0346 70.8714 9.15783 71.2138 9.15783C71.5562 9.15783 71.844 9.0346 72.0749 8.7874C72.3059 8.54021 72.4225 8.21849 72.4225 7.82076C72.4225 7.42304 72.3066 7.10796 72.0749 6.86224C71.8388 6.61062 71.5518 6.48444 71.2138 6.48444C70.8759 6.48444 70.5896 6.61062 70.3527 6.86224C70.1217 7.10943 70.0052 7.4282 70.0052 7.82076Z" fill="#5F6368"/>
<path id="Vector_14" d="M76.9581 9.67148H76.2933V9.1579H76.263C76.1575 9.33943 75.9944 9.48996 75.776 9.61097C75.5576 9.73199 75.3289 9.79249 75.0927 9.79249C74.6397 9.79249 74.2914 9.66263 74.0471 9.40362C73.8029 9.14389 73.6812 8.77567 73.6812 8.29752V5.97168H74.3762V8.25251C74.391 8.85684 74.6958 9.15864 75.2905 9.15864C75.5679 9.15864 75.7989 9.04648 75.9856 8.8229C76.1723 8.59932 76.2645 8.33073 76.2645 8.0186V5.97168H76.9596V9.67221L76.9581 9.67148Z" fill="#5F6368"/>
<path id="Vector_15" d="M79.316 9.79295C78.8327 9.79295 78.4165 9.60184 78.0697 9.21887C77.7273 8.83147 77.5562 8.36513 77.5562 7.8213C77.5562 7.27747 77.7273 6.81186 78.0697 6.42373C78.4173 6.04076 78.832 5.84964 79.316 5.84964C79.5876 5.84964 79.8355 5.9072 80.0598 6.02379C80.2834 6.13964 80.4561 6.29312 80.5771 6.48497H80.6074L80.5771 5.9714V4.26465H81.2722V9.67194H80.6074V9.15836H80.5771C80.4561 9.34948 80.2841 9.50296 80.0598 9.61954C79.8355 9.73539 79.5883 9.79295 79.316 9.79295ZM79.4297 9.15836C79.772 9.15836 80.0517 9.03513 80.2687 8.78794C80.4952 8.54074 80.6081 8.21902 80.6081 7.8213C80.6081 7.42357 80.4952 7.1144 80.2687 6.86277C80.0473 6.61115 79.7676 6.48497 79.4297 6.48497C79.0917 6.48497 78.8187 6.61115 78.5907 6.86277C78.3641 7.1144 78.2513 7.4339 78.2513 7.8213C78.2513 8.20869 78.3641 8.5341 78.5907 8.77982C78.8172 9.03218 79.0969 9.15836 79.4297 9.15836Z" fill="#5F6368"/>
</g>
<g id="Group_3">
<path id="Vector_16" d="M36.5601 19.7183V13.4912H38.7169C38.9951 13.4912 39.2578 13.5384 39.5043 13.6299C39.75 13.7229 39.9662 13.8535 40.1514 14.0218C40.3366 14.19 40.4834 14.3922 40.5904 14.6261C40.6974 14.86 40.7513 15.1205 40.7513 15.4046C40.7513 15.6887 40.6974 15.9395 40.5904 16.1742C40.4834 16.4088 40.3366 16.611 40.1514 16.7785C39.9662 16.9468 39.75 17.0774 39.5043 17.1703C39.2585 17.2633 38.9958 17.3091 38.7169 17.3091H37.5429V19.7183H36.5608H36.5601ZM38.7427 16.3697C38.9051 16.3697 39.0505 16.3424 39.1774 16.2871C39.305 16.2325 39.412 16.158 39.4998 16.0657C39.5869 15.9727 39.6533 15.8687 39.6998 15.7521C39.7455 15.6363 39.7692 15.5204 39.7692 15.4046C39.7692 15.2828 39.7455 15.164 39.6998 15.0482C39.6526 14.9323 39.5862 14.8297 39.4998 14.7397C39.4128 14.6497 39.3058 14.5759 39.1774 14.5184C39.0497 14.4608 38.9051 14.4313 38.7427 14.4313H37.5422V16.3705L38.7427 16.3697Z" fill="#5F6368"/>
<path id="Vector_17" d="M43.9913 19.1965H43.9396C43.812 19.3647 43.6467 19.5167 43.4438 19.6532C43.2408 19.789 42.9826 19.8576 42.6697 19.8576C42.4432 19.8576 42.2321 19.8215 42.0351 19.7492C41.8381 19.6768 41.6669 19.575 41.5223 19.4444C41.3777 19.3138 41.2625 19.1603 41.1784 18.9832C41.0943 18.8061 41.0522 18.6113 41.0522 18.3966C41.0522 18.1701 41.0973 17.9679 41.1873 17.7886C41.2773 17.6093 41.402 17.4587 41.5614 17.3362C41.7208 17.2145 41.9112 17.1208 42.1303 17.0544C42.3509 16.988 42.5885 16.9547 42.8431 16.9547C43.1272 16.9547 43.3648 16.9821 43.5559 17.0374C43.747 17.092 43.8917 17.1429 43.9905 17.1894V17.0241C43.9905 16.8965 43.9632 16.7784 43.9079 16.6677C43.8533 16.557 43.7773 16.4633 43.6814 16.3858C43.5854 16.3076 43.477 16.2471 43.3552 16.2036C43.2335 16.1593 43.1065 16.1379 42.9722 16.1379C42.7575 16.1379 42.5649 16.18 42.3945 16.2641C42.224 16.3482 42.0713 16.4825 41.9377 16.6684L41.1725 16.1637C41.3754 15.8855 41.6278 15.6752 41.9296 15.5328C42.2314 15.3912 42.573 15.3203 42.956 15.3203C43.5876 15.3203 44.0761 15.4767 44.4215 15.7896C44.7661 16.1032 44.9387 16.5496 44.9387 17.1296V19.7211H43.9905V19.1994L43.9913 19.1965ZM43.9913 17.945C43.8636 17.8697 43.7219 17.8092 43.5655 17.7627C43.4091 17.717 43.2298 17.6934 43.0269 17.6934C42.7251 17.6934 42.4852 17.7627 42.3052 17.9022C42.1259 18.0417 42.0359 18.2099 42.0359 18.4069C42.0359 18.5117 42.0595 18.6025 42.1052 18.6814C42.151 18.7596 42.2107 18.8275 42.2838 18.8858C42.3561 18.9434 42.4402 18.9876 42.5354 19.0164C42.6313 19.0459 42.728 19.0607 42.8261 19.0607C42.9826 19.0607 43.1316 19.0304 43.274 18.9692C43.4157 18.9087 43.5397 18.8275 43.6445 18.7264C43.7492 18.6246 43.8326 18.508 43.8961 18.3737C43.9595 18.2402 43.992 18.0985 43.992 17.948L43.9913 17.945Z" fill="#5F6368"/>
<path id="Vector_18" d="M46.7158 16.1705H46.7674C46.8833 15.9277 47.0581 15.7388 47.2935 15.6053C47.5282 15.4717 47.7879 15.4053 48.072 15.4053C48.165 15.4053 48.2329 15.4082 48.2764 15.4141C48.3192 15.42 48.3642 15.4289 48.4114 15.4407V16.4155C48.348 16.3919 48.2853 16.3764 48.2248 16.3675C48.1642 16.3586 48.0838 16.355 47.9857 16.355C47.6204 16.355 47.3267 16.4664 47.1032 16.69C46.8796 16.9135 46.7682 17.2072 46.7682 17.5725V19.7898H45.8022V15.5285H46.715V16.172L46.7158 16.1705ZM49.716 16.3092H48.9678V15.4569H49.716V14.1523H50.6819V15.4569H51.7349V16.3092H50.6819V18.2565C50.6819 18.3642 50.6937 18.4624 50.7174 18.5517C50.741 18.6417 50.7749 18.7155 50.8221 18.7752C50.921 18.8881 51.0457 18.945 51.1963 18.945C51.2892 18.945 51.3615 18.9383 51.4139 18.9236C51.4656 18.9088 51.5217 18.8874 51.5792 18.8579L51.8751 19.7102C51.7534 19.7559 51.6264 19.7928 51.4921 19.8186C51.3586 19.8452 51.2081 19.8577 51.0398 19.8577C50.8369 19.8577 50.6569 19.8253 50.5012 19.7603C50.3447 19.6947 50.2082 19.6069 50.0924 19.4947C49.8437 19.2401 49.7182 18.894 49.7182 18.4565V16.3099L49.716 16.3092Z" fill="#5F6368"/>
<path id="Vector_19" d="M53.329 16.0312H53.3807C53.5083 15.8282 53.6891 15.6593 53.9245 15.5228C54.1592 15.387 54.4248 15.3184 54.72 15.3184C55.2586 15.3184 55.6623 15.4792 55.9286 15.8009C56.195 16.1234 56.3293 16.5499 56.3293 17.0841V19.7199H55.3634V17.2155C55.3634 16.8443 55.2778 16.5846 55.1066 16.437C54.9354 16.2894 54.7111 16.2156 54.4329 16.2156C54.2647 16.2156 54.1164 16.2511 53.9895 16.3204C53.8618 16.3898 53.7511 16.4842 53.6596 16.6023C53.5666 16.7211 53.4973 16.8569 53.4508 17.0111C53.4036 17.1646 53.3814 17.3254 53.3814 17.4937V19.7199H52.4155V15.4586H53.3283V16.0319L53.329 16.0312Z" fill="#5F6368"/>
<path id="Vector_20" d="M61.1114 18.7006C60.9321 19.0305 60.6768 19.3072 60.3462 19.5271C60.0164 19.7477 59.6098 19.8569 59.1287 19.8569C58.8092 19.8569 58.5155 19.8001 58.2462 19.6872C57.9768 19.5743 57.7437 19.4156 57.5459 19.2135C57.3489 19.0105 57.1954 18.7715 57.0847 18.4955C56.974 18.2203 56.9194 17.9177 56.9194 17.5864C56.9194 17.2787 56.9711 16.988 57.0759 16.7127C57.1806 16.4375 57.3268 16.197 57.5149 15.9911C57.7031 15.7852 57.9311 15.6207 58.1975 15.4996C58.4638 15.3786 58.7597 15.3174 59.0844 15.3174C59.4084 15.3174 59.7094 15.372 59.9669 15.4827C60.2245 15.5934 60.4436 15.7461 60.6229 15.9439C60.8022 16.1409 60.9402 16.3785 61.0361 16.6567C61.1321 16.9348 61.18 17.2396 61.18 17.5694V17.6477C61.1741 17.6772 61.1712 17.7023 61.1712 17.7259C61.1653 17.7495 61.1623 17.7731 61.1623 17.7952H57.8831C57.9008 17.9982 57.9495 18.1752 58.0307 18.3258C58.1119 18.4763 58.2115 18.601 58.3303 18.6999C58.4491 18.7988 58.5812 18.8711 58.7258 18.9176C58.8704 18.9648 59.0128 18.9869 59.1516 18.9869C59.4297 18.9869 59.6585 18.9205 59.8393 18.787C60.0186 18.6534 60.1662 18.4881 60.2828 18.2911L61.1092 18.6999L61.1114 18.7006ZM60.2163 17.0573C60.2045 16.9703 60.1772 16.8736 60.1337 16.7666C60.0909 16.6589 60.023 16.5607 59.9337 16.4707C59.8437 16.3807 59.7279 16.3039 59.5862 16.2405C59.4438 16.177 59.2718 16.1446 59.0689 16.1446C58.7907 16.1446 58.5517 16.2272 58.3509 16.3925C58.151 16.5578 58.0159 16.7792 57.9466 17.0573H60.2163Z" fill="#5F6368"/>
<path id="Vector_21" d="M61.8225 15.4571H62.7353V16.1005H62.7869C62.8386 15.9898 62.9102 15.888 62.9995 15.7921C63.0895 15.6962 63.1906 15.615 63.3042 15.5478C63.4171 15.4807 63.5359 15.4261 63.6606 15.3826C63.7853 15.3398 63.9056 15.3184 64.0222 15.3184C64.1609 15.3184 64.2797 15.3324 64.3786 15.3575C64.4775 15.384 64.5667 15.4202 64.6479 15.4659L64.3697 16.3448C64.3063 16.3153 64.2347 16.2939 64.1572 16.2791C64.079 16.2643 63.9845 16.2577 63.8753 16.2577C63.7189 16.2577 63.5758 16.2902 63.4444 16.3544C63.3138 16.4186 63.1994 16.5056 63.1005 16.6163C63.0017 16.727 62.9249 16.8583 62.8703 17.0096C62.8157 17.1609 62.7877 17.321 62.7877 17.49V19.7192H61.8218V15.4578L61.8225 15.4571Z" fill="#5F6368"/>
</g>
</g>
</svg>
