<svg width="188" height="40" viewBox="0 0 188 40" fill="none" xmlns="http://www.w3.org/2000/svg">
<g id="Company logo">
<path id="Vector" d="M72.3575 22.39L71.4796 24.8773H71.4064C71.2601 24.3165 70.9919 23.463 70.5529 22.4387L65.8465 10.6116H61.2375V29.4619H64.2858V17.8298C64.2858 17.0982 64.2858 16.2691 64.2614 15.2449C64.237 14.7328 64.1882 14.3426 64.1638 14.05H64.237C64.3833 14.7816 64.554 15.3181 64.6759 15.6595L70.3335 29.4131H72.4794L78.0882 15.5376C78.2101 15.2205 78.332 14.5865 78.4539 14.05H78.5271C78.4539 15.44 78.4052 16.6837 78.3808 17.4397V29.3887H81.6241V10.5628H77.1859L72.3575 22.39ZM84.6967 15.879H87.8669V29.3887H84.6967V15.879ZM86.3062 10.1727C85.7697 10.1727 85.3308 10.3678 84.965 10.7092C84.5992 11.0506 84.4041 11.4895 84.4041 12.026C84.4041 12.5381 84.5992 12.977 84.965 13.3184C85.3308 13.6598 85.7697 13.8305 86.3062 13.8305C86.8427 13.8305 87.306 13.6355 87.6474 13.3184C88.0132 12.977 88.2083 12.5381 88.2083 12.026C88.2083 11.5139 88.0132 11.0749 87.6474 10.7092C87.3304 10.3678 86.8671 10.1727 86.3062 10.1727ZM99.1088 15.757C98.5235 15.6351 97.9138 15.5619 97.3286 15.5619C95.8898 15.5619 94.573 15.879 93.4756 16.513C92.3783 17.147 91.5004 18.0249 90.9395 19.1223C90.3542 20.244 90.0616 21.5365 90.0616 23.024C90.0616 24.3165 90.3542 25.4626 90.9151 26.5112C91.476 27.5354 92.2563 28.3645 93.3049 28.9254C94.3047 29.4863 95.4753 29.7789 96.7921 29.7789C98.304 29.7789 99.5965 29.4619 100.621 28.8766L100.645 28.8522V25.9259L100.523 26.0235C100.06 26.3649 99.5233 26.6575 98.9868 26.8282C98.4259 27.0233 97.9139 27.1208 97.4749 27.1208C96.2068 27.1208 95.207 26.755 94.4998 25.9503C93.7683 25.17 93.4025 24.097 93.4025 22.7558C93.4025 21.3658 93.7683 20.2684 94.5242 19.4637C95.2802 18.6589 96.28 18.2444 97.4993 18.2444C98.5235 18.2444 99.5721 18.5858 100.523 19.2686L100.645 19.3661V16.2691L100.621 16.2447C100.206 16.074 99.7428 15.879 99.1088 15.757ZM109.57 15.6595C108.79 15.6595 108.058 15.9033 107.424 16.4154C106.888 16.8544 106.522 17.4884 106.205 18.2444H106.181V15.879H103.01V29.3887H106.181V22.4875C106.181 21.317 106.425 20.3416 106.961 19.6344C107.497 18.9028 108.18 18.537 109.009 18.537C109.302 18.537 109.595 18.6102 109.96 18.6589C110.302 18.7565 110.546 18.854 110.716 18.976L110.838 19.0735V15.9033L110.765 15.879C110.546 15.7326 110.107 15.6595 109.57 15.6595ZM118.203 15.5863C115.984 15.5863 114.204 16.2447 112.96 17.5372C111.692 18.8296 111.082 20.6098 111.082 22.8533C111.082 24.9505 111.716 26.6575 112.936 27.9012C114.155 29.1205 115.813 29.7545 117.886 29.7545C120.056 29.7545 121.788 29.0961 123.031 27.7792C124.299 26.4624 124.909 24.7066 124.909 22.5363C124.909 20.3903 124.324 18.6833 123.129 17.4397C121.983 16.196 120.3 15.5863 118.203 15.5863ZM120.739 25.9747C120.154 26.7307 119.227 27.0964 118.081 27.0964C116.935 27.0964 116.008 26.7307 115.35 25.9259C114.691 25.17 114.374 24.0726 114.374 22.6826C114.374 21.2438 114.716 20.1465 115.35 19.3661C116.008 18.5858 116.91 18.1956 118.057 18.1956C119.178 18.1956 120.056 18.5614 120.69 19.3174C121.324 20.0733 121.666 21.1707 121.666 22.6094C121.617 24.0726 121.349 25.2187 120.739 25.9747ZM131.981 21.4877C130.981 21.0731 130.347 20.7561 130.054 20.4879C129.811 20.244 129.689 19.9026 129.689 19.4637C129.689 19.0979 129.835 18.7321 130.201 18.4882C130.566 18.2444 130.981 18.1225 131.591 18.1225C132.127 18.1225 132.688 18.22 133.225 18.3663C133.761 18.5126 134.249 18.7321 134.639 19.0247L134.761 19.1223V16.1472L134.688 16.1228C134.322 15.9765 133.834 15.8302 133.249 15.7083C132.664 15.6107 132.127 15.5619 131.688 15.5619C130.176 15.5619 128.933 15.9277 127.957 16.7325C126.982 17.4884 126.518 18.5126 126.518 19.7075C126.518 20.3416 126.616 20.9024 126.835 21.3658C127.055 21.8291 127.372 22.268 127.811 22.6338C128.25 22.9752 128.884 23.3654 129.762 23.7312C130.493 24.0482 131.054 24.2921 131.396 24.4872C131.737 24.6822 131.956 24.9017 132.127 25.0724C132.249 25.2675 132.322 25.5114 132.322 25.8284C132.322 26.7307 131.639 27.1696 130.249 27.1696C129.713 27.1696 129.152 27.0721 128.494 26.8526C127.835 26.6331 127.226 26.3161 126.714 25.9503L126.592 25.8528V28.9498L126.665 28.9742C127.128 29.1936 127.689 29.3399 128.372 29.5106C129.055 29.6326 129.664 29.7301 130.201 29.7301C131.835 29.7301 133.176 29.3643 134.127 28.5596C135.102 27.7792 135.614 26.7794 135.614 25.487C135.614 24.5847 135.37 23.78 134.834 23.1703C134.127 22.5851 133.249 21.9754 131.981 21.4877ZM143.979 15.5863C141.76 15.5863 139.979 16.2447 138.736 17.5372C137.492 18.8296 136.858 20.6098 136.858 22.8533C136.858 24.9505 137.492 26.6575 138.711 27.9012C139.931 29.1205 141.589 29.7545 143.662 29.7545C145.832 29.7545 147.563 29.0961 148.807 27.7792C150.075 26.4624 150.685 24.7066 150.685 22.5363C150.685 20.3903 150.1 18.6833 148.905 17.4397C147.758 16.196 146.076 15.5863 143.979 15.5863ZM146.49 25.9747C145.905 26.7307 144.979 27.0964 143.832 27.0964C142.662 27.0964 141.76 26.7307 141.101 25.9259C140.443 25.17 140.126 24.0726 140.126 22.6826C140.126 21.2438 140.467 20.1465 141.101 19.3661C141.76 18.5858 142.662 18.1956 143.808 18.1956C144.905 18.1956 145.808 18.5614 146.442 19.3174C147.076 20.0733 147.417 21.1707 147.417 22.6094C147.417 24.0726 147.1 25.2187 146.49 25.9747ZM167.633 18.4882V15.879H164.438V11.8797L164.341 11.9041L161.317 12.8063L161.244 12.8307V15.879H156.464V14.1719C156.464 13.3916 156.659 12.782 157.001 12.3918C157.342 12.0016 157.854 11.8065 158.488 11.8065C158.927 11.8065 159.391 11.9041 159.903 12.1235L160.025 12.1967V9.4411L159.951 9.41671C159.512 9.27039 158.927 9.17285 158.171 9.17285C157.22 9.17285 156.391 9.39232 155.635 9.75811C154.879 10.1727 154.318 10.7335 153.904 11.4895C153.489 12.2211 153.27 13.0502 153.27 14.0012V15.879H151.051V18.4639H153.27V29.3887H156.464V18.4882H161.244V25.4382C161.244 28.2913 162.585 29.7301 165.268 29.7301C165.706 29.7301 166.17 29.657 166.609 29.5838C167.072 29.4863 167.413 29.3643 167.609 29.2668L167.633 29.2424V26.6331L167.511 26.7307C167.316 26.8526 167.145 26.9501 166.853 27.0233C166.609 27.0964 166.389 27.1208 166.219 27.1208C165.585 27.1208 165.146 26.9745 164.829 26.6087C164.536 26.2673 164.39 25.7064 164.39 24.8773V18.4882H167.633Z" fill="#818898"/>
<path id="Vector_2" d="M20.3669 4.271H35.3155V19.2195H20.3669V4.271Z" fill="#818898"/>
<path id="Vector_3" d="M36.8762 4.271H51.8247V19.2195H36.8762V4.271Z" fill="#818898"/>
<path id="Vector_4" d="M20.3669 20.7803H35.3155V35.7288H20.3669V20.7803Z" fill="#818898"/>
<path id="Vector_5" d="M36.8762 20.7803H51.8247V35.7288H36.8762V20.7803Z" fill="#818898"/>
</g>
</svg>
