<svg width="138" height="40" viewBox="0 0 138 40" fill="none" xmlns="http://www.w3.org/2000/svg">
<g id="Company logo">
<path id="Vector" d="M29.0742 5.00009C25.8582 5.00009 24.1428 5.2136 23.3921 5.2136C22.1414 5.2136 21.0336 5.17788 19.9254 5.17788C19.3181 5.17788 19.2109 5.2136 19.2109 5.46237C19.2109 5.88865 19.3537 5.92469 20.9623 5.92469C21.9624 5.92469 22.5349 6.24463 22.5349 9.05268V25.4041C22.5349 25.9372 22.463 26.0084 20.855 26.0084C20.0686 26.0084 19.854 26.079 19.854 26.4349C19.854 26.7903 20.1042 26.8258 20.462 26.8258C21.6053 26.8258 22.3917 26.6837 23.8924 26.6837C25.4648 26.6837 26.966 27.0388 28.4671 27.0388C33.4348 27.0388 36.7586 25.1554 36.7586 21.174C36.7586 18.0816 34.6494 16.8727 32.9698 16.0191C32.2551 15.6638 31.5759 15.4861 31.5759 15.4153C31.5759 15.3089 32.3623 14.9176 33.0417 14.4554C34.1855 13.6736 35.7222 12.4288 35.7222 9.90524C35.7222 7.38136 33.7208 5.00009 29.0742 5.00009ZM90.3078 5.04075C90.1213 5.04075 88.94 5.56638 86.5155 5.72097C85.9873 5.75184 85.7381 5.72065 85.7381 6.09172C85.7381 6.43215 86.0493 6.49418 86.6088 6.49418C88.0073 6.49418 88.194 6.49399 88.194 8.44157V25.4774C88.194 26.0339 87.6654 26.0031 86.391 26.0031C85.6447 26.0031 85.6137 26.1891 85.6137 26.4055C85.6137 26.6528 85.6757 26.7146 86.391 26.7146C86.8262 26.7146 88.4739 26.653 89.5304 26.653C90.0906 26.653 90.7743 26.7146 91.2405 26.7146C92.3593 26.7146 92.5769 26.7145 92.5769 26.4055C92.5769 26.1576 92.6389 25.9722 91.0847 25.9722C90.5254 25.9722 90.3077 25.6322 90.3077 23.0663C90.3077 22.1692 90.4632 19.7271 90.4632 7.94691C90.4632 7.01957 90.6185 5.90598 90.6185 5.53491C90.6185 5.19475 90.463 5.04075 90.3078 5.04075ZM64.5009 5.07158C64.221 5.07158 62.3868 5.75139 60.149 5.75139C59.8071 5.75139 59.7449 5.8752 59.7449 6.18421C59.7449 6.40119 59.8692 6.49422 61.1433 6.49422C61.9825 6.49422 62.2314 6.77249 62.2314 8.96738C62.2314 15.4914 62.138 24.643 62.138 25.5395C62.138 26.0032 61.8584 26.0031 60.8016 26.0031C60.0555 26.0031 59.9003 26.1577 59.9003 26.4056C59.9003 26.6837 60.0868 26.7146 60.8016 26.7146C61.2367 26.7146 62.387 26.653 63.4443 26.653C64.439 26.653 65.8683 26.7146 66.3345 26.7146C67.0182 26.7146 67.1738 26.7146 67.1738 26.4056C67.1738 26.1577 67.0496 26.0031 66.3345 26.0031C64.4075 26.0031 64.4699 26.0033 64.4699 24.5506V22.6027C64.4699 22.3243 64.905 22.1075 65.4022 21.7983C65.9304 21.4581 66.3654 21.1492 66.4898 21.1492C66.6764 21.1492 67.9826 23.0975 69.288 24.5814C70.5934 26.0653 70.8733 26.8383 71.4331 26.8383C71.8683 26.8383 72.8007 26.8075 73.1737 26.8075C73.4534 26.8075 73.8573 26.8383 74.2304 26.8383C74.9141 26.8383 75.1317 26.7765 75.1317 26.5601C75.1317 26.3128 74.8832 26.1576 74.1374 26.1576C73.0807 26.1576 72.0859 24.6429 71.0285 23.3754C68.8529 20.778 68.2938 20.1908 68.2938 19.9124C68.2938 19.696 70.2208 18.336 71.7753 16.8206C72.7387 15.8933 73.7952 14.5641 73.7952 14.2854C73.7952 14.1925 73.6711 14.1616 73.4225 14.1616C73.0498 14.1616 71.2463 14.2541 70.8422 14.2541C70.4691 14.2541 69.8789 14.1616 69.5682 14.1616C69.1641 14.1616 69.0086 14.2234 69.0086 14.4712C69.0086 14.7496 69.164 14.8111 69.6301 14.8111C70.9976 14.8111 71.0909 14.8731 71.0909 15.3676C71.0909 16.0168 70.8111 16.5425 69.5992 17.6863C68.6044 18.6142 65.371 21.4583 64.5939 21.4583C64.5008 21.4583 64.4699 21.3655 64.4699 21.2417C64.4699 16.2022 64.6559 12.7396 64.6559 8.03999C64.6559 7.05058 64.7183 5.75134 64.7183 5.34967C64.7183 5.1642 64.6561 5.07158 64.5009 5.07158ZM28.0016 5.85325C31.2538 5.85325 32.755 9.26591 32.755 11.0434C32.755 13.8515 31.5756 14.5269 30.5392 15.309C30.5392 15.309 29.0379 15.0955 26.8583 15.0955C26.0001 15.0955 25.5358 15.1664 25.5358 14.5975V6.88432C25.5358 6.17337 25.6432 5.85325 28.0016 5.85325ZM43.6741 13.8523C40.8456 13.8523 37.8922 16.4496 37.8922 20.809C37.8922 25.9723 41.6848 27.2096 44.2334 27.2096C46.7513 27.2096 49.3936 25.261 49.3936 25.1066C49.3936 25.0446 49.3003 24.8592 49.1448 24.8592C48.9586 24.8592 47.8396 25.6015 45.7881 25.6015C43.4254 25.6015 40.099 24.4574 40.099 20.1907C40.099 19.4797 40.1926 19.3251 40.6903 19.2942C44.2334 19.0778 47.3419 18.398 48.1501 18.2119C48.9899 18.0264 49.425 17.9029 49.425 17.7791C49.425 17.5318 48.9273 16.7896 48.3985 16.1716C47.2796 14.8729 45.2908 13.8523 43.6741 13.8523ZM79.9194 13.8523C77.0911 13.8523 74.1375 16.4496 74.1375 20.809C74.1375 25.9723 77.9298 27.2096 80.4787 27.2096C82.9963 27.2096 85.6389 25.261 85.6389 25.1066C85.6389 25.0446 85.5453 24.8592 85.3901 24.8592C85.2035 24.8592 84.0844 25.6015 82.0329 25.6015C79.6705 25.6015 76.3446 24.4574 76.3446 20.1907C76.3446 19.4797 76.438 19.3251 76.9351 19.2942C80.4788 19.0778 83.5867 18.398 84.3955 18.2119C85.2347 18.0264 85.6699 17.9029 85.6699 17.7791C85.6699 17.5318 85.1728 16.7896 84.6442 16.1716C83.5248 14.8729 81.536 13.8523 79.9194 13.8523ZM97.8486 13.8523C95.0197 13.8523 92.0667 16.4496 92.0667 20.809C92.0667 25.9723 95.859 27.2096 98.4079 27.2096C100.926 27.2096 103.568 25.261 103.568 25.1066C103.568 25.0446 103.475 24.8592 103.319 24.8592C103.133 24.8592 102.014 25.6015 99.9622 25.6015C97.6 25.6015 94.2739 24.4574 94.2739 20.1907C94.2739 19.4797 94.3672 19.3251 94.8644 19.2942C98.4081 19.0778 101.517 18.398 102.325 18.2119C103.164 18.0264 103.599 17.9029 103.599 17.7791C103.599 17.5318 103.102 16.7896 102.574 16.1716C101.455 14.8729 99.4647 13.8523 97.8486 13.8523ZM54.4913 14.0685C53.9936 14.0685 53.4029 14.223 52.9057 14.223C52.2841 14.223 51.6933 14.1609 50.6365 14.1609C50.1077 14.1609 50.139 14.2541 50.139 14.6254C50.139 14.9656 50.1388 14.9345 50.699 14.9345C52.4395 14.9345 52.3771 14.9964 52.3771 17.0986V25.5705C52.3771 26.0033 52.2841 26.0341 51.0097 26.0341C50.2633 26.0341 50.2323 26.0957 50.2323 26.4053C50.2323 26.7146 50.2943 26.7144 51.0097 26.7144C51.4449 26.7144 52.5018 26.5598 53.5586 26.5598C54.5536 26.5598 56.636 26.7144 57.0711 26.7144C57.8793 26.7144 57.9105 26.7455 57.9105 26.4053C57.9105 26.1266 57.8793 26.0341 57.0711 26.0341C54.7711 26.0341 54.6781 26.0339 54.6781 24.519V18.1494C54.6781 16.851 55.3615 16.109 57.1641 16.109C58.7187 16.109 59.0919 17.3767 59.5271 17.3767C59.7136 17.3767 60.2106 16.0164 60.2106 15.7071C60.2106 14.9035 58.7809 14.2228 58.2207 14.2228C56.7599 14.2228 55.2996 15.8308 54.8335 15.8308C54.709 15.8308 54.6781 15.6145 54.6781 15.3364C54.6781 15.2434 54.7401 14.5633 54.7401 14.4086C54.7401 14.1608 54.6158 14.0685 54.4913 14.0685ZM116.558 14.0992C116.123 14.0992 115.284 14.223 114.818 14.223C113.978 14.223 113.419 14.1614 112.58 14.1614C112.02 14.1614 111.927 14.1611 111.927 14.5634C111.927 14.8726 112.051 14.8729 113.015 14.8729C114.071 14.8729 114.071 15.0581 114.071 15.9855C114.071 16.4183 112.952 19.6343 112.207 21.86C111.709 23.3137 111.523 23.7463 111.305 23.7463C111.181 23.7463 110.808 23.2207 110.558 22.5716C108.694 17.8096 107.886 16.7274 107.886 15.8309C107.886 15.1199 108.072 14.9344 108.818 14.9344C109.471 14.9344 109.595 14.9035 109.595 14.6253C109.595 14.2846 109.471 14.1612 108.818 14.1612C107.824 14.1612 106.735 14.2537 105.865 14.2537C105.119 14.2537 104.902 14.192 104.031 14.192C103.472 14.192 103.379 14.3469 103.379 14.6253C103.379 14.9035 103.41 14.9344 104.031 14.9344C104.591 14.9344 104.808 15.0893 105.586 16.9439C107.295 20.9634 109.782 26.6833 109.782 27.0235C109.782 27.9508 107.109 31.599 105.99 32.99C104.933 34.3199 103.472 34.5053 103.472 34.6909C103.472 34.8455 103.783 35 104.311 35C104.995 35 105.212 34.7527 106.145 34.6292C106.829 34.5364 107.202 34.5053 107.544 33.8253C108.538 31.7845 109.937 29.2799 111.896 24.5496C114.351 18.6139 115.719 14.9034 116.403 14.9034C116.776 14.9034 117.211 14.7487 117.211 14.4706C117.211 14.1301 117.056 14.0992 116.558 14.0992ZM43.3632 14.5017C44.7933 14.5017 46.627 16.7892 46.627 17.5622C46.627 17.7477 46.5963 17.8096 46.2543 17.8713C43.9229 18.2424 42.2443 18.6449 40.6279 18.6449C40.2546 18.6449 40.2547 18.6137 40.2547 18.4591C40.2547 18.0257 41.001 14.5017 43.3632 14.5017ZM79.6079 14.5017C81.0383 14.5017 82.8721 16.7892 82.8721 17.5622C82.8721 17.7477 82.841 17.8096 82.4989 17.8713C80.1675 18.2424 78.4891 18.6449 76.8731 18.6449C76.5 18.6449 76.4999 18.6137 76.4999 18.4591C76.4999 18.0257 77.2458 14.5017 79.6079 14.5017ZM97.5371 14.5017C98.9669 14.5017 100.801 16.7892 100.801 17.5622C100.801 17.7477 100.77 17.8096 100.428 17.8713C98.0968 18.2424 96.4184 18.6449 94.8018 18.6449C94.4288 18.6449 94.4286 18.6137 94.4286 18.4591C94.4286 18.0257 95.1744 14.5017 97.5371 14.5017ZM26.825 15.7702C30.7201 15.7702 33.3645 18.2586 33.3645 21.458C33.3645 24.5505 31.3635 26.3994 28.6476 26.3994C27.5037 26.3994 26.3606 26.1504 25.9671 25.7237C25.6458 25.368 25.5383 23.3777 25.5383 23.0575V16.6943C25.5383 15.9124 25.8242 15.7702 26.825 15.7702ZM44.5467 30.2813C43.8124 30.2813 43.1999 30.7219 43.1999 31.452C43.1999 32.8396 45.038 32.5923 45.038 33.3646C45.038 33.6722 44.8013 33.9377 44.3222 33.9377C44.0006 33.9377 43.5943 33.7873 43.2543 33.558L42.9512 34.0891C43.2909 34.3241 43.7517 34.5478 44.3222 34.5478C45.1169 34.5478 45.7781 34.0403 45.7781 33.3405C45.7781 31.9344 43.94 32.3572 43.94 31.4217C43.94 31.1141 44.1464 30.8911 44.5467 30.8911C44.9045 30.8911 45.1834 31.0118 45.4929 31.1684L45.7538 30.6494C45.4023 30.4324 44.9832 30.2813 44.5467 30.2813ZM59.2001 30.2813C57.9505 30.2813 57.3927 31.1685 57.3927 32.4114C57.3927 33.5941 57.9445 34.5479 59.2001 34.5479C60.4558 34.5479 61.008 33.5941 61.008 32.4114C61.008 31.1685 60.4497 30.2813 59.2001 30.2813ZM68.9413 30.2813C67.6916 30.2813 67.0786 31.1745 67.0786 32.4177C67.0786 33.6847 67.6373 34.5478 68.917 34.5478C69.4751 34.5478 69.9969 34.3181 70.4214 33.9319L70.0514 33.4616C69.7117 33.7694 69.3236 33.9377 68.9534 33.9377C68.1828 33.9377 67.8186 33.3891 67.8186 32.4115C67.8186 31.4401 68.2073 30.891 68.9413 30.891C69.3356 30.891 69.6267 31.03 69.9481 31.2953L70.3244 30.8124C69.8875 30.4562 69.4568 30.2813 68.9413 30.2813ZM84.7351 30.2813C83.4852 30.2813 82.9277 31.1685 82.9277 32.4114C82.9277 33.5941 83.4795 34.5479 84.7351 34.5479C85.9907 34.5479 86.543 33.5941 86.543 32.4114C86.543 31.1685 85.9847 30.2813 84.7351 30.2813ZM26.6859 30.3416L25.988 30.4144V34.4813H26.7101V31.7057H26.7222L28.4754 34.4813H29.1184V30.3479H28.3964V33.0636H28.3784L26.6859 30.3416ZM35.9471 30.3416V34.4813H38.4708L38.5256 33.8716H36.6691V32.7013H38.2283V32.0916H36.6691V30.9513H38.4223V30.3417L35.9471 30.3416ZM61.9367 30.3416V34.4813H62.6584V32.7013H64.1875V32.0916H62.6584V30.9513H64.363V30.3417L61.9367 30.3416ZM73.0971 30.3416L72.2542 30.4082L70.792 34.4813H71.4656L71.811 33.4852H73.4855L73.8313 34.4813H74.5718L73.0971 30.3416ZM80.0355 30.3416V34.4813H80.7572V32.7013H82.2863V32.0916H80.7572V30.9513H82.4623V30.3417L80.0355 30.3416ZM91.4022 30.3416L90.7044 30.4144V34.4813H91.426V31.7057H91.4386L93.1913 34.4813H93.8344V30.3479H93.1127V33.0636H93.0943L91.4022 30.3416ZM98.3585 30.3416L97.5151 30.4082L96.0529 34.4813H96.7266L97.0724 33.4852H98.7464L99.0922 34.4813H99.8328L98.3585 30.3416ZM21.9098 30.3478V33.0448C21.9098 33.9742 22.4253 34.5478 23.4448 34.5478C24.4575 34.5478 24.9734 33.9743 24.9734 33.039V30.3478H24.2513V33.0872C24.2513 33.6004 24.0333 33.9377 23.4447 33.9377C22.8502 33.9377 22.6315 33.6001 22.6315 33.081V30.3478H21.9098ZM30.1467 30.3478V34.4813H30.8684V30.3478H30.1467ZM31.5779 30.3478L33.0095 34.4813H33.8039L35.2418 30.3478H34.5318L33.7374 32.6589C33.7374 32.6589 33.6586 32.8939 33.4523 33.6H33.4159C33.2156 32.8939 33.137 32.6527 33.137 32.6527L32.3422 30.3478H31.5779ZM39.4808 30.3478V34.4813H40.2025V32.8277H40.5483C40.8093 32.8277 40.961 33.0695 41.0822 33.3168L41.6584 34.4812H42.4532L41.6584 32.9908C41.6101 32.8941 41.5371 32.7853 41.4038 32.7067V32.6951C41.9495 32.4898 42.1864 32.0676 42.1864 31.5731C42.1864 30.855 41.7313 30.3479 40.815 30.3479L39.4808 30.3478ZM46.6377 30.3478V34.4813H47.3594V30.3478H46.6377ZM48.1901 30.3478V30.9634H49.2885V34.4813H50.0102V30.9571H51.0596L51.1145 30.3478H48.1901ZM51.5868 30.3478L52.8973 32.713V34.4813H53.6189V32.7129L54.9298 30.3478H54.1345L53.5462 31.5248C53.5462 31.5248 53.4734 31.6752 53.2673 32.134H53.2494C53.0307 31.6752 52.9517 31.5248 52.9517 31.5248L52.3998 30.3478H51.5868ZM75.1566 30.3478V34.4813H77.6134L77.6682 33.8716H75.8787V30.3478H75.1566ZM78.371 30.3478V34.4813H79.0927V30.3478H78.371ZM87.1655 30.3478V34.4813H87.8875V32.8277H88.2333C88.494 32.8277 88.646 33.0695 88.7672 33.3168L89.3434 34.4812H90.1383L89.3435 32.9908C89.2952 32.8941 89.2222 32.7853 89.0888 32.7067V32.6951C89.6346 32.4898 89.8715 32.0676 89.8715 31.5731C89.8715 30.855 89.4163 30.3479 88.5001 30.3479L87.1655 30.3478ZM94.7413 30.3478V34.4813H95.463V30.3478H94.7413ZM59.1991 30.891C59.915 30.891 60.2607 31.5124 60.2607 32.4114C60.2607 33.3105 59.9093 33.9377 59.1991 33.9377C58.4835 33.9377 58.1317 33.3102 58.1317 32.4051C58.1317 31.5061 58.4835 30.891 59.1991 30.891ZM84.7335 30.891C85.4494 30.891 85.7951 31.5124 85.7951 32.4114C85.7951 33.3105 85.4434 33.9377 84.7335 33.9377C84.0176 33.9377 83.6661 33.3102 83.6661 32.4051C83.6661 31.5061 84.0176 30.891 84.7335 30.891ZM40.2025 30.9634H40.797C41.2885 30.9634 41.4464 31.1927 41.4464 31.5789C41.4464 31.9711 41.246 32.2243 40.8092 32.2243H40.2025V30.9634ZM87.8874 30.9634H88.482C88.9735 30.9634 89.1314 31.1927 89.1314 31.5789C89.1314 31.9711 88.931 32.2243 88.4941 32.2243H87.8874V30.9634ZM72.6333 31.0719H72.6455C72.9306 31.9286 72.9791 32.0612 72.9791 32.0612L73.3006 32.9725H71.984L72.3055 32.0613C72.3055 32.0613 72.3542 31.9286 72.6333 31.0719ZM97.8947 31.0719H97.9068C98.1919 31.9286 98.241 32.0612 98.241 32.0612L98.562 32.9725H97.2454L97.5674 32.0613C97.5674 32.0613 97.6156 31.9286 97.8947 31.0719Z" fill="#818898"/>
</g>
</svg>
