<svg width="201" height="40" viewBox="0 0 201 40" fill="none" xmlns="http://www.w3.org/2000/svg">
<g id="nytimes-wordmark 1">
<g id="Group">
<g id="Clip path group">
<mask id="mask0_2002_4736" style="mask-type:luminance" maskUnits="userSpaceOnUse" x="2" y="7" width="197" height="27">
<g id="B">
<path id="Vector" d="M198.428 7L198.796 33.6667H2.47024L2.10278 7H198.428Z" fill="white"/>
</g>
</mask>
<g mask="url(#mask0_2002_4736)">
<path id="Vector_2" d="M8.2445 21.8032V14.6116L5.88229 15.5564C5.88229 15.5564 5.30486 16.7638 5.40985 18.5486C5.46234 19.9659 6.30224 21.5932 6.93216 22.3281L8.2445 21.8032ZM14.5962 7C15.1211 7.05249 16.0135 7.31496 16.6435 7.8399C17.3259 8.46982 17.4833 9.46719 17.2734 10.3596C17.0634 11.147 16.8009 11.5669 15.961 12.1444C15.1211 12.7218 14.4912 12.7743 14.4912 12.7743V16.2389L16.1185 17.4987L14.4912 18.9685V23.6929C14.4912 23.6929 15.856 22.5906 16.9059 20.4383C16.9059 20.4383 16.9584 20.3333 17.0634 20.0709C17.1684 20.6483 17.1159 21.8557 16.4335 23.3255C15.9085 24.4803 15.0162 25.5302 13.8088 26.1601C11.7616 27.2625 10.1868 27.3675 8.55946 27.0525C6.6172 26.6851 4.83242 25.6352 3.67756 23.7979C2.83767 22.4856 2.47021 21.0158 2.47021 19.3885C2.52271 16.1864 4.9899 13.4567 7.82455 12.4068C8.192 12.3018 8.29699 12.1969 8.76943 12.1444C8.55946 12.3018 8.29699 12.4593 7.98203 12.6693C7.08964 13.2467 6.30224 14.4016 5.93478 15.294L11.3941 12.9318V20.3333L7.03715 22.4856C7.56208 23.168 9.08439 24.1654 10.3967 24.3228C12.6015 24.5853 14.0713 23.7454 14.0713 23.7454V18.916L12.444 17.4987L14.0713 16.2389V12.7743C13.1264 12.6693 11.8141 12.2493 11.1841 12.0919C10.1868 11.8819 6.93216 10.9895 6.40722 10.8845C5.88229 10.832 5.25237 10.832 4.88491 11.147C4.51746 11.4619 4.25499 12.0919 4.41247 12.6168C4.51746 12.9318 4.72743 13.0892 4.88491 13.2467C4.88491 13.2467 4.67494 13.2467 4.35998 13.0367C3.73006 12.6693 3.25762 11.9869 3.20512 11.0945C3.17447 10.5452 3.28359 9.99702 3.52227 9.5013C3.76095 9.00558 4.12141 8.57845 4.56995 8.25984C5.40985 7.73491 6.35473 7.41995 7.45709 7.57743C9.08439 7.7874 11.2366 8.67979 13.1789 9.15223C13.9138 9.30971 14.4912 9.36221 15.0162 9.09974C15.2786 8.94226 15.6986 8.46982 15.3311 7.89239C14.9112 7.20997 14.1238 7.20997 13.4413 7.10499C14.0713 7 14.1763 7 14.5962 7Z" fill="#818898"/>
</g>
</g>
<g id="Clip path group_2">
<mask id="mask1_2002_4736" style="mask-type:luminance" maskUnits="userSpaceOnUse" x="2" y="7" width="197" height="27">
<g id="D">
<path id="Vector_3" d="M198.428 7L198.796 33.6667H2.47024L2.10278 7H198.428Z" fill="white"/>
</g>
</mask>
<g mask="url(#mask1_2002_4736)">
<path id="Vector_4" d="M35.9611 19.9134L33.4414 21.6982V15.8189L35.9611 19.9134ZM35.8561 14.2441L33.074 15.8714L30.4493 17.2363V24.0604L29.4519 24.8478L29.6094 25.0053L30.6068 24.2179L33.7039 26.8951L39.0582 22.8006L38.9532 22.6431L35.9611 24.9003L33.4414 22.7481V21.9082L38.3233 18.4436L35.8561 14.2441Z" fill="#818898"/>
</g>
</g>
<g id="Clip path group_3">
<mask id="mask2_2002_4736" style="mask-type:luminance" maskUnits="userSpaceOnUse" x="2" y="7" width="197" height="27">
<g id="F">
<path id="Vector_5" d="M198.428 7L198.796 33.6667H2.47024L2.10278 7H198.428Z" fill="white"/>
</g>
</mask>
<g mask="url(#mask2_2002_4736)">
<path id="Vector_6" d="M21.7879 29.5724C22.4703 29.7299 23.7301 29.8348 25.2524 29.0999C26.9322 28.3125 27.5622 26.5802 27.5622 24.848L27.6146 22.3808V16.9214L28.6645 16.134L28.5595 15.9766L27.5097 16.764L25.2524 14.1393L21.7879 16.7115V7.99756L18.2708 10.8847C18.4283 10.9897 19.2157 11.0947 19.2157 11.8296V24.0606L17.3784 25.2154L17.4834 25.3729L18.2708 24.7955L20.4755 26.7902L23.9401 24.1131L23.8351 23.9556L22.9952 24.5855L21.8404 23.7981V16.9739L23.2052 16.134L25.095 18.0763V23.9556C25.095 25.5304 24.675 27.3676 23.8351 28.3125C22.9952 29.2574 22.6803 29.3099 21.7879 29.5724Z" fill="#818898"/>
</g>
</g>
<g id="Clip path group_4">
<mask id="mask3_2002_4736" style="mask-type:luminance" maskUnits="userSpaceOnUse" x="2" y="7" width="197" height="27">
<g id="H">
<path id="Vector_7" d="M198.428 7L198.796 33.6667H2.47024L2.10278 7H198.428Z" fill="white"/>
</g>
</mask>
<g mask="url(#mask3_2002_4736)">
<path id="Vector_8" d="M45.8298 28.9422C44.465 28.7847 43.8875 27.9973 43.8875 27.3149C43.8875 26.895 44.3075 26.1076 45.1474 26.0026C45.9873 25.8976 46.8272 26.2651 47.5621 27.105L50.7642 23.6929L50.6067 23.5354L49.7668 24.4803C48.8744 23.5354 47.8246 22.9055 46.5647 22.748V12.3018L54.7012 26.9475C54.7012 26.9475 54.9112 27.105 55.2786 27.105C55.5936 27.105 55.4886 26.895 55.4886 26.895V12.1443C56.171 12.1443 57.0634 11.7769 57.5883 11.2519C59.1631 9.67712 58.5332 7.94484 58.3757 7.73486C58.2708 8.46977 57.6933 9.25717 56.696 9.25717C55.3836 9.25717 54.5962 8.31229 54.5962 8.31229L51.2891 11.8818L51.4466 12.0393L52.339 11.042C53.4414 12.0393 54.0713 12.1443 54.9112 12.1968V20.7532L48.9794 9.8871C48.402 8.99471 47.5621 8.2073 46.2498 8.2073C44.7274 8.2073 43.6251 9.51964 43.4676 10.622C43.3101 11.8818 43.4676 12.1968 43.4676 12.1968C43.4676 12.1968 43.6776 10.7795 44.57 10.7795C45.3574 10.7795 45.6198 11.1994 45.9873 11.7244V15.1889C45.1474 15.2414 43.1526 15.3464 42.9952 17.5511C42.9952 18.391 43.5201 19.2309 43.9925 19.4934C44.57 19.8609 45.0424 19.8609 45.0424 19.8609C45.0424 19.8609 44.36 19.4934 44.57 18.7585C44.7799 18.1286 45.9873 18.0236 46.0398 18.286V22.6955C45.3574 22.6955 43.4151 22.748 42.4177 24.5328C41.8403 25.5826 41.8928 26.79 42.4702 27.6299C42.9952 28.3648 44.045 29.2572 45.8298 28.9422Z" fill="#818898"/>
</g>
</g>
<g id="Clip path group_5">
<mask id="mask4_2002_4736" style="mask-type:luminance" maskUnits="userSpaceOnUse" x="2" y="7" width="197" height="27">
<g id="J">
<path id="Vector_9" d="M198.428 7L198.796 33.6667H2.47024L2.10278 7H198.428Z" fill="white"/>
</g>
</mask>
<g mask="url(#mask4_2002_4736)">
<path id="Vector_10" d="M63.4677 19.9134L60.738 21.6982V15.8189L63.4677 19.9134ZM63.3627 14.2441L60.528 15.8714L58.0609 17.2363V24.0604L57.0635 24.8478L57.221 25.0053L58.2183 24.2179L61.1055 26.8951L66.4598 22.8006L66.3548 22.6431L63.3627 24.9003L60.948 22.6956V21.8557L65.8299 18.3911L63.3627 14.2441Z" fill="#818898"/>
</g>
</g>
<g id="Clip path group_6">
<mask id="mask5_2002_4736" style="mask-type:luminance" maskUnits="userSpaceOnUse" x="2" y="7" width="197" height="27">
<g id="L">
<path id="Vector_11" d="M198.428 7L198.796 33.6667H2.47024L2.10278 7H198.428Z" fill="white"/>
</g>
</mask>
<g mask="url(#mask5_2002_4736)">
<path id="Vector_12" d="M70.9217 27.0527L68.297 24.953L67.1421 25.7404L67.0371 25.5829L68.192 24.743V18.8112C68.2445 16.3965 65.8823 16.9739 66.0398 14.4018C66.0923 13.2469 67.2471 12.407 67.8245 12.1445C68.4545 11.8296 69.0844 11.8296 69.0844 11.8296C69.0844 11.8296 67.982 12.4595 68.2445 13.4044C68.6644 14.8742 71.1841 14.9792 71.2366 16.9215V23.6406L72.8639 25.1104L73.3364 24.743V17.4464L72.6015 16.449L75.2261 14.1918L77.6408 16.239L76.5385 17.1839V23.6406L78.9532 25.4254L79.3731 25.1629V17.4464L78.3757 16.5015L81.0004 14.1918L83.4676 16.1341L84.465 15.2942L84.57 15.4516L82.3652 17.3414V23.6406L76.7484 27.0002L73.8613 24.848L70.9217 27.0527Z" fill="#818898"/>
</g>
</g>
<g id="Group_2">
<g id="Clip path group_7">
<mask id="mask6_2002_4736" style="mask-type:luminance" maskUnits="userSpaceOnUse" x="2" y="7" width="197" height="27">
<g id="N">
<path id="Vector_13" d="M198.428 7L198.796 33.6667H2.47024L2.10278 7H198.428Z" fill="white"/>
</g>
</mask>
<g mask="url(#mask6_2002_4736)">
<path id="Vector_14" d="M186.355 19.9134L183.573 21.6982V15.8189L186.355 19.9134ZM186.302 14.2441L183.468 15.8714L180.896 17.2363V24.0604L179.793 24.8478L179.951 25.0053L180.948 24.2179L184.045 26.8951L189.4 22.8006L189.295 22.6431L186.302 24.9003L183.835 22.6956V21.8557L188.717 18.3911L186.302 14.2441Z" fill="#818898"/>
</g>
</g>
<path id="Vector_15" d="M167.825 16.8161L168.402 16.3437L169.924 18.2334V23.8502L169.452 24.4802L171.657 26.8424L174.019 24.5852L173.074 23.6928V16.8686L173.757 16.3437L175.699 18.181V23.7978L174.911 24.3227L177.379 26.8949L180.633 24.0077L180.476 23.8502L179.688 24.5327L178.323 23.2728V16.8686L179.636 15.9762L179.531 15.8187L178.323 16.7111L176.119 14.2964L172.969 16.7111L170.712 14.4014L167.667 16.7111L165.41 14.4014L162.155 17.1311L162.26 17.2886L163.31 16.4487L164.78 18.076V23.7453L164.045 24.3752L166.407 26.9474L168.822 24.6376L167.825 23.6403V16.8161ZM163.258 24.2177L163.153 24.0602L162.208 24.8476L160.948 23.4303V17.0786L162.05 16.1862L161.893 16.0287L160.843 16.9211L158.586 14.3489L155.226 16.9736L155.646 17.0786L156.486 16.3962L157.851 17.9185V24.3752L156.906 25.1626L157.011 25.3201L158.008 24.4802L160.161 26.8949L163.258 24.2177ZM158.743 9.51953L160.633 11.5668L158.271 13.614L156.381 11.6193L158.743 9.51953Z" fill="#818898"/>
</g>
<g id="Clip path group_8">
<mask id="mask7_2002_4736" style="mask-type:luminance" maskUnits="userSpaceOnUse" x="2" y="7" width="197" height="27">
<g id="P">
<path id="Vector_16" d="M198.428 7L198.796 33.6667H2.47024L2.10278 7H198.428Z" fill="white"/>
</g>
</mask>
<g mask="url(#mask7_2002_4736)">
<path id="Vector_17" d="M145.882 21.8032V14.6116L143.678 15.5564C143.678 15.5564 143.1 16.7638 143.205 18.5486C143.258 19.9659 144.098 21.5932 144.728 22.3281L145.882 21.8032ZM152.182 7C152.759 7.05249 153.599 7.31496 154.229 7.8399C154.911 8.46982 155.069 9.46719 154.859 10.3596C154.649 11.147 154.386 11.5669 153.546 12.1444C152.707 12.7218 152.077 12.6693 152.077 12.6693V16.1339L153.651 17.4987L152.077 18.8635V23.5354C152.077 23.5354 153.389 22.5906 154.491 20.4383C154.491 20.4383 154.544 20.3333 154.649 20.0709C154.754 20.6483 154.701 21.8557 154.019 23.3255C153.494 24.4803 152.602 25.5302 151.394 26.1601C149.347 27.2625 147.772 27.3675 146.145 27.0525C144.203 26.6851 142.418 25.6352 141.263 23.7979C140.423 22.4856 140.056 21.0158 140.056 19.3885C140.108 16.1864 142.575 13.4567 145.41 12.4068C145.725 12.3018 145.882 12.1969 146.355 12.1444C146.145 12.3018 145.882 12.4593 145.567 12.6693C144.675 13.2467 143.888 14.4016 143.52 15.294L148.927 13.0367V20.4383L144.623 22.4856C145.148 23.168 146.67 24.1654 147.982 24.3228C150.187 24.5853 151.604 23.6404 151.604 23.6404V18.811L150.029 17.4462L151.604 16.0814V12.6168C150.659 12.5118 149.452 12.1969 148.77 12.0394C147.772 11.8294 144.518 10.937 143.993 10.832C143.468 10.7795 142.838 10.7795 142.47 11.0945C142.103 11.4095 141.84 12.0394 141.998 12.5643C142.103 12.8793 142.313 13.0367 142.47 13.1942C142.47 13.1942 142.26 13.1942 141.945 12.9843C141.316 12.6168 140.843 11.9344 140.791 11.042C140.76 10.4927 140.869 9.94452 141.108 9.4488C141.346 8.95308 141.707 8.52596 142.155 8.20735C142.995 7.68242 143.94 7.36745 145.043 7.52493C146.67 7.73491 148.822 8.6273 150.764 9.09974C151.499 9.25722 152.077 9.30971 152.602 9.04725C152.864 8.88976 153.284 8.41732 152.917 7.8399C152.497 7.15748 151.709 7.15748 151.027 7.05249C151.604 7 151.762 7 152.182 7Z" fill="#818898"/>
</g>
</g>
<g id="Clip path group_9">
<mask id="mask8_2002_4736" style="mask-type:luminance" maskUnits="userSpaceOnUse" x="2" y="7" width="197" height="27">
<g id="R">
<path id="Vector_18" d="M198.428 7L198.796 33.6667H2.47024L2.10278 7H198.428Z" fill="white"/>
</g>
</mask>
<g mask="url(#mask8_2002_4736)">
<path id="Vector_19" d="M193.021 15.609V19.0211L194.491 20.0185C194.491 20.0185 197.011 18.0237 197.956 16.2389C197.956 16.2389 196.801 17.7612 195.279 17.2888C193.966 16.9214 193.336 15.6615 193.336 15.6615M190.449 24.5854C190.449 24.5854 191.552 22.8006 193.494 23.1681C195.331 23.5355 196.171 25.4253 196.171 25.4253V21.1208L194.649 20.071C193.284 21.4358 190.764 23.378 190.449 24.5854ZM192.287 27.84C191.919 27.945 190.397 27.5775 190.029 26.0027C189.662 24.4804 190.764 23.483 192.392 21.8557L190.449 20.1235V16.8689C190.449 16.8689 191.867 16.1864 192.969 15.504L195.226 14.0867C195.226 14.0867 196.066 15.0841 197.011 15.0316C198.481 14.9266 198.428 13.7717 198.376 13.5093C198.638 13.9292 199.321 15.2416 196.696 18.1287L198.796 19.756V24.008C198.796 24.008 196.381 25.2153 194.019 26.8951C194.019 26.8951 192.707 25.3203 191.604 26.0552C190.869 26.6326 191.237 27.4725 192.287 27.84Z" fill="#818898"/>
</g>
</g>
<g id="Clip path group_10">
<mask id="mask9_2002_4736" style="mask-type:luminance" maskUnits="userSpaceOnUse" x="2" y="7" width="197" height="27">
<g id="T">
<path id="Vector_20" d="M198.428 7L198.796 33.6667H2.47024L2.10278 7H198.428Z" fill="white"/>
</g>
</mask>
<g mask="url(#mask9_2002_4736)">
<path id="Vector_21" d="M107.457 23.0103L110.187 25.3725V18.1284L107.457 15.7137V23.0103ZM113.284 17.0785L114.229 16.2387L114.386 16.3961L113.232 17.236V24.0077L110.502 25.5825L107.982 27.0523L104.78 24.4276L103.94 25.1625L103.783 25.0051L104.885 24.2702V16.9211H104.728L107.51 15.5562L109.924 14.1914L113.284 17.0785Z" fill="#818898"/>
</g>
</g>
<g id="Clip path group_11">
<mask id="mask10_2002_4736" style="mask-type:luminance" maskUnits="userSpaceOnUse" x="2" y="7" width="197" height="27">
<g id="V">
<path id="Vector_22" d="M198.428 7L198.796 33.6667H2.47024L2.10278 7H198.428Z" fill="white"/>
</g>
</mask>
<g mask="url(#mask10_2002_4736)">
<path id="Vector_23" d="M119.636 16.3964L121.683 14.3491C121.683 14.3491 121.945 14.6116 122.208 14.7166C122.365 14.7691 122.995 15.084 123.52 14.7691C123.835 14.6116 123.888 14.5591 124.203 14.2441C124.255 15.8189 123.468 16.9213 122.523 17.3937C122.103 17.6037 120.738 17.9187 119.478 16.5014V23.798L121 24.9003L122.103 24.0604L122.208 24.2179L118.848 26.9476L116.276 24.6903L115.331 25.5302L115.174 25.3728L116.328 24.1654V17.9187L115.489 16.5539L114.544 17.3413L114.386 17.1838L117.641 14.3491L119.636 16.3964Z" fill="#818898"/>
</g>
</g>
<g id="Clip path group_12">
<mask id="mask11_2002_4736" style="mask-type:luminance" maskUnits="userSpaceOnUse" x="2" y="7" width="197" height="27">
<g id="X">
<path id="Vector_24" d="M198.428 7L198.796 33.6667H2.47024L2.10278 7H198.428Z" fill="white"/>
</g>
</mask>
<g mask="url(#mask11_2002_4736)">
<path id="Vector_25" d="M128.245 19.441L132.024 14.1392C132.024 14.1392 132.549 14.7166 133.389 14.9266C134.544 15.2415 135.594 14.1392 135.594 14.1392C135.384 15.5565 134.649 17.1838 133.127 17.4462C131.762 17.6562 130.502 16.6588 130.502 16.6588L130.239 17.0263L135.489 24.6903L136.539 23.798L136.696 23.9554L133.074 27.0001L128.245 19.441Z" fill="#818898"/>
</g>
</g>
<g id="Clip path group_13">
<mask id="mask12_2002_4736" style="mask-type:luminance" maskUnits="userSpaceOnUse" x="2" y="7" width="197" height="27">
<g id="Z">
<path id="Vector_26" d="M198.428 7L198.796 33.6667H2.47024L2.10278 7H198.428Z" fill="white"/>
</g>
</mask>
<g mask="url(#mask12_2002_4736)">
<path id="Vector_27" d="M125.305 12.3018C125.305 11.1469 124.623 10.4645 123.993 10.517L127.93 7.73486V23.5879L129.19 24.6903L130.029 24.0078L130.187 24.1653L126.88 26.9475L124.623 24.9002L123.73 25.6876L123.573 25.5301L125.358 24.2178V12.3018H125.305Z" fill="#818898"/>
</g>
</g>
<g id="Clip path group_14">
<mask id="mask13_2002_4736" style="mask-type:luminance" maskUnits="userSpaceOnUse" x="2" y="7" width="197" height="27">
<g id="b">
<path id="Vector_28" d="M198.428 7L198.796 33.6667H2.47024L2.10278 7H198.428Z" fill="white"/>
</g>
</mask>
<g mask="url(#mask13_2002_4736)">
<path id="Vector_29" d="M98.6382 16.7637C98.6382 16.7637 98.1658 17.2886 97.4833 17.2886C96.7484 17.2886 96.4335 16.7637 96.4335 16.7637V18.9159C96.4335 18.9159 96.7484 18.391 97.4833 18.391C98.2182 18.391 98.6382 18.8634 98.6382 18.8634V16.7637ZM98.5332 12.1443L97.2209 10.7794L96.4335 11.3569V16.4487C96.4335 16.4487 96.9059 17.0262 97.6408 17.0262C98.3757 17.0262 98.5332 16.4487 98.5332 16.4487V12.1443ZM96.4335 26.5275C96.4335 26.5275 97.3783 26.7899 98.1133 26.2125C98.9007 25.5826 98.5332 24.7427 98.5332 24.7427V19.2834C98.5332 19.2834 98.3232 18.7059 97.6408 18.7059C96.9059 18.7059 96.4335 19.2834 96.4335 19.2834V26.5275ZM90.6592 12.0393C90.6592 10.9894 90.1867 10.3595 89.5043 10.3595C88.4545 10.3595 88.192 11.7768 88.192 11.7768C88.192 11.7768 87.982 10.6744 88.9794 9.67707C89.5043 9.09964 90.5017 8.31224 92.0765 8.67969C93.7038 9.04715 94.3337 10.2545 94.3337 11.3569V26.1075C94.6107 26.1748 94.8911 26.2274 95.1736 26.265C95.6461 26.37 95.9085 26.475 95.9085 26.475V8.73219H96.4335V11.1469L99.6356 8.57471L102.05 10.6744L103.205 9.72956L103.31 9.88704L102.155 10.8844V24.5852C102.103 25.4776 101.945 26.37 101.053 26.8949C99.1106 27.9973 96.7484 26.7374 94.6487 26.4225C93.0739 26.2125 90.6592 25.8976 90.0293 27.3149C89.8193 27.7873 89.8193 28.4697 90.5542 28.9422C91.9715 29.8346 98.2707 27.4199 100.423 28.3647C102.365 29.2571 102.365 30.6745 102.103 31.6193C101.578 33.4041 99.2156 33.7716 99.2156 33.7716C99.2156 33.7716 100.37 33.1416 100.056 32.0393C99.898 31.5144 99.5306 31.3569 98.2707 31.4619C95.5936 31.7768 92.339 33.0367 90.1867 32.1443C89.0844 31.6718 88.297 30.3595 88.3495 28.9947C88.402 27.1049 90.7117 26.3175 90.7117 26.3175V19.2309C90.6592 18.9684 89.4518 19.0209 89.1369 19.5458C88.7169 20.3332 89.6618 20.7007 89.6618 20.7007C89.6618 20.7007 88.9269 20.8057 88.297 20.1233C87.982 19.8083 87.3521 18.601 88.192 17.4461C88.8744 16.5012 89.7143 16.3437 90.7642 16.2388L90.6592 12.0393Z" fill="#818898"/>
</g>
</g>
</g>
</g>
</svg>
