<svg width="138" height="40" viewBox="0 0 138 40" fill="none" xmlns="http://www.w3.org/2000/svg">
<g id="Company logo">
<path id="Vector" d="M42.5017 19.4871L51.3521 10.7192C51.6172 10.4186 51.7562 10.0297 51.7409 9.63167C51.7256 9.23362 51.5571 8.85626 51.2697 8.57633C50.9822 8.29641 50.5975 8.13494 50.1936 8.12476C49.7898 8.11457 49.3972 8.25645 49.0956 8.52152L40.2498 17.2507L31.3693 8.50558C31.0695 8.21385 30.6644 8.05151 30.2432 8.05429C29.8219 8.05706 29.4191 8.22472 29.1232 8.52038C28.8274 8.81603 28.6627 9.21547 28.6656 9.63082C28.6684 10.0462 28.8384 10.4434 29.1382 10.7351L37.9887 19.4734L29.1429 28.2186C28.9867 28.361 28.8612 28.5329 28.7737 28.724C28.6862 28.9152 28.6384 29.1217 28.6334 29.3314C28.6283 29.5411 28.666 29.7496 28.7442 29.9447C28.8224 30.1397 28.9395 30.3173 29.0886 30.4669C29.2377 30.6165 29.4157 30.7351 29.6121 30.8156C29.8085 30.896 30.0193 30.9368 30.232 30.9355C30.4447 30.9342 30.655 30.8908 30.8503 30.8078C31.0457 30.7249 31.2222 30.6041 31.3693 30.4527L40.2383 21.703L49.0725 30.4185C49.2902 30.6468 49.5726 30.8051 49.8829 30.8729C50.1931 30.9407 50.5169 30.9147 50.812 30.7985C51.1071 30.6822 51.3598 30.4811 51.5373 30.2212C51.7148 29.9612 51.8088 29.6546 51.8071 29.3413C51.8081 29.1362 51.7678 28.933 51.6885 28.7434C51.6092 28.5537 51.4925 28.3816 51.3452 28.2368L42.4994 19.478M95.117 19.4848C95.117 21.0562 96.4104 22.3315 98.004 22.3315C98.7697 22.3312 99.5039 22.031 100.045 21.4969C100.586 20.9629 100.89 20.2387 100.89 19.4837C100.89 18.7287 100.585 18.0047 100.043 17.4711C99.5018 16.9374 98.7674 16.6378 98.0017 16.6381C96.415 16.6381 95.1239 17.9134 95.1239 19.4848M89.6548 19.4848C89.6548 14.9414 93.3963 11.2407 98.0017 11.2407C102.598 11.2407 106.346 14.9414 106.346 19.4848C106.346 24.0282 102.6 27.7289 98.0017 27.7289C95.7867 27.7253 93.6636 26.8551 92.0987 25.3095C90.5337 23.7638 89.6548 21.6689 89.6548 19.4848ZM86.3705 19.4848C86.3705 25.8159 91.5902 30.9719 98.0017 30.9719C104.413 30.9719 109.633 25.8205 109.633 19.4871C109.633 13.156 104.413 8 98.0017 8C94.9156 8.00603 91.9579 9.21879 89.7774 11.3723C87.5969 13.5257 86.3717 16.4418 86.3705 19.4848ZM85.546 8.19585H85.0609C83.5943 8.19585 82.1809 8.65133 81.0006 9.55089C80.9195 9.20301 80.7217 8.89232 80.4391 8.66913C80.1566 8.44594 79.806 8.32331 79.444 8.32111C79.2369 8.3211 79.0319 8.36146 78.8408 8.43986C78.6496 8.51825 78.4761 8.63314 78.3301 8.77791C78.1842 8.92267 78.0687 9.09447 77.9903 9.28341C77.9119 9.47235 77.8722 9.6747 77.8734 9.87883L77.878 29.2252C77.9005 29.6249 78.0775 30.0009 78.3727 30.2758C78.6678 30.5508 79.0586 30.7037 79.4646 30.7031C79.8706 30.7025 80.261 30.5485 80.5553 30.2727C80.8496 29.9969 81.0255 29.6204 81.0468 29.2206V17.3236C81.0468 13.3609 81.4164 11.7577 84.8531 11.3341C85.1764 11.2954 85.5182 11.3022 85.5229 11.3022C86.4606 11.268 87.1304 10.6281 87.1304 9.76497C87.1291 9.349 86.9607 8.95048 86.662 8.65677C86.3632 8.36306 85.9586 8.19813 85.5367 8.19813M55.0914 17.5969C55.0914 17.5513 55.096 17.5058 55.0983 17.4648C55.5598 15.6675 56.6194 14.0748 58.1077 12.9417C59.5959 11.8086 61.4267 11.2006 63.3069 11.215C65.1871 11.2294 67.008 11.8655 68.4782 13.0213C69.9483 14.1771 70.9827 15.7859 71.4157 17.59H55.0891L55.0914 17.5969ZM74.6607 17.3008C73.9771 14.1057 72.2056 11.4798 69.5103 9.79457C67.557 8.58556 65.2849 7.97293 62.9795 8.03371C60.6741 8.09449 58.4383 8.82597 56.5534 10.1362C54.646 11.4892 53.1928 13.3741 52.3807 15.5482C51.5686 17.7224 51.4348 20.0864 51.9965 22.3361C52.5838 24.5751 53.8382 26.5892 55.5977 28.1184C57.3573 29.6476 59.5413 30.6217 61.8678 30.915C63.272 31.0835 64.6393 31.0061 66.0482 30.6417C67.282 30.3461 68.4574 29.8504 69.5265 29.1751C70.6513 28.4622 71.5913 27.5194 72.5059 26.3921C72.5197 26.3693 72.5382 26.3534 72.5567 26.3306C73.1895 25.5563 73.0717 24.4495 72.3788 23.9257C71.7922 23.4816 70.8083 23.3017 70.0369 24.281C69.8706 24.5178 69.6835 24.7592 69.4826 24.9983C68.8659 25.6702 68.1014 26.3192 67.1868 26.8248C66.0182 27.4397 64.6924 27.7881 63.2836 27.7972C58.669 27.7449 56.2023 24.5634 55.3223 22.2951C55.1686 21.8649 55.0505 21.4232 54.969 20.9742L54.9459 20.7351H71.5058C73.7739 20.685 74.9933 19.1022 74.6561 17.2963L74.6607 17.3008Z" fill="#818898"/>
</g>
</svg>
