<svg width="14" height="14" viewBox="0 0 14 14" fill="none" xmlns="http://www.w3.org/2000/svg">
<path d="M2.62508 12.8332V9.9165M2.62508 4.08317V1.1665M1.16675 2.62484H4.08341M1.16675 11.3748H4.08341M7.58342 1.74984L6.57181 4.38001C6.4073 4.80772 6.32505 5.02158 6.19714 5.20147C6.08378 5.3609 5.94448 5.5002 5.78505 5.61356C5.60516 5.74147 5.3913 5.82373 4.96358 5.98823L2.33342 6.99984L4.96359 8.01144C5.3913 8.17595 5.60516 8.2582 5.78505 8.38611C5.94448 8.49948 6.08378 8.63877 6.19714 8.7982C6.32505 8.97809 6.40731 9.19195 6.57181 9.61967L7.58342 12.2498L8.59502 9.61967C8.75953 9.19195 8.84178 8.97809 8.96969 8.7982C9.08306 8.63877 9.22235 8.49948 9.38178 8.38611C9.56167 8.2582 9.77553 8.17595 10.2032 8.01144L12.8334 6.99984L10.2032 5.98823C9.77553 5.82373 9.56167 5.74147 9.38178 5.61356C9.22235 5.5002 9.08306 5.3609 8.96969 5.20147C8.84178 5.02158 8.75953 4.80772 8.59502 4.38001L7.58342 1.74984Z" stroke="#818898" stroke-width="1.16667" stroke-linecap="round" stroke-linejoin="round"/>
</svg>
