<svg width="109" height="20" viewBox="0 0 109 20" fill="none" xmlns="http://www.w3.org/2000/svg">
<path d="M11.038 1.4796C10.6977 1.31735 10.3024 1.31735 9.96209 1.4796C9.66791 1.61986 9.50571 1.86339 9.42392 1.99699C9.33936 2.13511 9.25256 2.31105 9.16795 2.48254L7.37151 6.12194L3.35313 6.70929C3.16397 6.73689 2.96988 6.76522 2.81245 6.80308C2.66015 6.8397 2.37856 6.91891 2.15447 7.15545C1.89523 7.42908 1.77331 7.8051 1.82266 8.17879C1.86532 8.50182 2.04685 8.73119 2.14869 8.85022C2.25395 8.97325 2.39449 9.11008 2.53146 9.24344L5.43796 12.0744L4.75216 16.0729C4.71978 16.2615 4.68657 16.4549 4.67378 16.6164C4.66142 16.7725 4.64946 17.0649 4.80505 17.3514C4.98501 17.6827 5.30491 17.9151 5.67563 17.9838C5.99614 18.0432 6.27054 17.9415 6.41524 17.8814C6.56486 17.8193 6.73854 17.728 6.90784 17.6389L10.5001 15.7498L14.0923 17.6389C14.2616 17.728 14.4353 17.8193 14.5849 17.8814C14.7296 17.9415 15.004 18.0432 15.3245 17.9838C15.6952 17.9151 16.0151 17.6827 16.1951 17.3514C16.3507 17.0649 16.3387 16.7725 16.3263 16.6164C16.3136 16.4549 16.2803 16.2615 16.248 16.073L15.5622 12.0744L18.4687 9.24341C18.6056 9.11006 18.7462 8.97324 18.8514 8.85022C18.9533 8.73119 19.1348 8.50182 19.1775 8.17879C19.2268 7.8051 19.1049 7.42908 18.8457 7.15545C18.6216 6.91891 18.34 6.8397 18.1877 6.80308C18.0302 6.76522 17.8361 6.73689 17.647 6.70928L13.6286 6.12194L11.8322 2.4826C11.7476 2.3111 11.6608 2.13512 11.5762 1.99699C11.4944 1.86339 11.3322 1.61986 11.038 1.4796Z" fill="#FFA320"/>
<path d="M33.038 1.4796C32.6977 1.31735 32.3024 1.31735 31.9621 1.4796C31.6679 1.61986 31.5057 1.86339 31.4239 1.99699C31.3394 2.13511 31.2526 2.31105 31.168 2.48254L29.3715 6.12194L25.3531 6.70929C25.164 6.73689 24.9699 6.76522 24.8125 6.80308C24.6602 6.8397 24.3786 6.91891 24.1545 7.15545C23.8952 7.42908 23.7733 7.8051 23.8227 8.17879C23.8653 8.50182 24.0469 8.73119 24.1487 8.85022C24.254 8.97325 24.3945 9.11008 24.5315 9.24344L27.438 12.0744L26.7522 16.0729C26.7198 16.2615 26.6866 16.4549 26.6738 16.6164C26.6614 16.7725 26.6495 17.0649 26.805 17.3514C26.985 17.6827 27.3049 17.9151 27.6756 17.9838C27.9961 18.0432 28.2705 17.9415 28.4152 17.8814C28.5649 17.8193 28.7385 17.728 28.9078 17.6389L32.5001 15.7498L36.0923 17.6389C36.2616 17.728 36.4353 17.8193 36.5849 17.8814C36.7296 17.9415 37.004 18.0432 37.3245 17.9838C37.6952 17.9151 38.0151 17.6827 38.1951 17.3514C38.3507 17.0649 38.3387 16.7725 38.3263 16.6164C38.3136 16.4549 38.2803 16.2615 38.248 16.073L37.5622 12.0744L40.4687 9.24341C40.6056 9.11006 40.7462 8.97324 40.8514 8.85022C40.9533 8.73119 41.1348 8.50182 41.1775 8.17879C41.2268 7.8051 41.1049 7.42908 40.8457 7.15545C40.6216 6.91891 40.34 6.8397 40.1877 6.80308C40.0302 6.76522 39.8361 6.73689 39.647 6.70928L35.6286 6.12194L33.8322 2.4826C33.7476 2.3111 33.6608 2.13512 33.5762 1.99699C33.4944 1.86339 33.3322 1.61986 33.038 1.4796Z" fill="#FFA320"/>
<path d="M55.038 1.4796C54.6977 1.31735 54.3024 1.31735 53.9621 1.4796C53.6679 1.61986 53.5057 1.86339 53.4239 1.99699C53.3394 2.13511 53.2526 2.31105 53.168 2.48254L51.3715 6.12194L47.3531 6.70929C47.164 6.73689 46.9699 6.76522 46.8125 6.80308C46.6602 6.8397 46.3786 6.91891 46.1545 7.15545C45.8952 7.42908 45.7733 7.8051 45.8227 8.17879C45.8653 8.50182 46.0469 8.73119 46.1487 8.85022C46.254 8.97325 46.3945 9.11008 46.5315 9.24344L49.438 12.0744L48.7522 16.0729C48.7198 16.2615 48.6866 16.4549 48.6738 16.6164C48.6614 16.7725 48.6495 17.0649 48.805 17.3514C48.985 17.6827 49.3049 17.9151 49.6756 17.9838C49.9961 18.0432 50.2705 17.9415 50.4152 17.8814C50.5649 17.8193 50.7385 17.728 50.9078 17.6389L54.5001 15.7498L58.0923 17.6389C58.2616 17.728 58.4353 17.8193 58.5849 17.8814C58.7296 17.9415 59.004 18.0432 59.3245 17.9838C59.6952 17.9151 60.0151 17.6827 60.1951 17.3514C60.3507 17.0649 60.3387 16.7725 60.3263 16.6164C60.3136 16.4549 60.2803 16.2615 60.248 16.073L59.5622 12.0744L62.4687 9.24341C62.6056 9.11006 62.7462 8.97324 62.8514 8.85022C62.9533 8.73119 63.1348 8.50182 63.1775 8.17879C63.2268 7.8051 63.1049 7.42908 62.8457 7.15545C62.6216 6.91891 62.34 6.8397 62.1877 6.80308C62.0302 6.76522 61.8361 6.73689 61.647 6.70928L57.6286 6.12194L55.8322 2.4826C55.7476 2.3111 55.6608 2.13512 55.5762 1.99699C55.4944 1.86339 55.3322 1.61986 55.038 1.4796Z" fill="#FFA320"/>
<path d="M77.038 1.4796C76.6977 1.31735 76.3024 1.31735 75.9621 1.4796C75.6679 1.61986 75.5057 1.86339 75.4239 1.99699C75.3394 2.13511 75.2526 2.31105 75.168 2.48254L73.3715 6.12194L69.3531 6.70929C69.164 6.73689 68.9699 6.76522 68.8125 6.80308C68.6602 6.8397 68.3786 6.91891 68.1545 7.15545C67.8952 7.42908 67.7733 7.8051 67.8227 8.17879C67.8653 8.50182 68.0469 8.73119 68.1487 8.85022C68.254 8.97325 68.3945 9.11008 68.5315 9.24344L71.438 12.0744L70.7522 16.0729C70.7198 16.2615 70.6866 16.4549 70.6738 16.6164C70.6614 16.7725 70.6495 17.0649 70.805 17.3514C70.985 17.6827 71.3049 17.9151 71.6756 17.9838C71.9961 18.0432 72.2705 17.9415 72.4152 17.8814C72.5649 17.8193 72.7385 17.728 72.9078 17.6389L76.5001 15.7498L80.0923 17.6389C80.2616 17.728 80.4353 17.8193 80.5849 17.8814C80.7296 17.9415 81.004 18.0432 81.3245 17.9838C81.6952 17.9151 82.0151 17.6827 82.1951 17.3514C82.3507 17.0649 82.3387 16.7725 82.3263 16.6164C82.3136 16.4549 82.2803 16.2615 82.248 16.073L81.5622 12.0744L84.4687 9.24341C84.6056 9.11006 84.7462 8.97324 84.8514 8.85022C84.9533 8.73119 85.1348 8.50182 85.1775 8.17879C85.2268 7.8051 85.1049 7.42908 84.8457 7.15545C84.6216 6.91891 84.34 6.8397 84.1877 6.80308C84.0302 6.76522 83.8361 6.73689 83.647 6.70928L79.6286 6.12194L77.8322 2.4826C77.7476 2.3111 77.6608 2.13512 77.5762 1.99699C77.4944 1.86339 77.3322 1.61986 77.038 1.4796Z" fill="#FFA320"/>
<path d="M99.038 1.4796C98.6977 1.31735 98.3024 1.31735 97.9621 1.4796C97.6679 1.61986 97.5057 1.86339 97.4239 1.99699C97.3394 2.13511 97.2526 2.31105 97.168 2.48254L95.3715 6.12194L91.3531 6.70929C91.164 6.73689 90.9699 6.76522 90.8125 6.80308C90.6602 6.8397 90.3786 6.91891 90.1545 7.15545C89.8952 7.42908 89.7733 7.8051 89.8227 8.17879C89.8653 8.50182 90.0469 8.73119 90.1487 8.85022C90.254 8.97325 90.3945 9.11008 90.5315 9.24344L93.438 12.0744L92.7522 16.0729C92.7198 16.2615 92.6866 16.4549 92.6738 16.6164C92.6614 16.7725 92.6495 17.0649 92.805 17.3514C92.985 17.6827 93.3049 17.9151 93.6756 17.9838C93.9961 18.0432 94.2705 17.9415 94.4152 17.8814C94.5649 17.8193 94.7385 17.728 94.9078 17.6389L98.5001 15.7498L102.092 17.6389C102.262 17.728 102.435 17.8193 102.585 17.8814C102.73 17.9415 103.004 18.0432 103.324 17.9838C103.695 17.9151 104.015 17.6827 104.195 17.3514C104.351 17.0649 104.339 16.7725 104.326 16.6164C104.314 16.4549 104.28 16.2615 104.248 16.073L103.562 12.0744L106.469 9.24341C106.606 9.11006 106.746 8.97324 106.851 8.85022C106.953 8.73119 107.135 8.50182 107.177 8.17879C107.227 7.8051 107.105 7.42908 106.846 7.15545C106.622 6.91891 106.34 6.8397 106.188 6.80308C106.03 6.76522 105.836 6.73689 105.647 6.70928L101.629 6.12194L99.8322 2.4826C99.7476 2.3111 99.6608 2.13512 99.5762 1.99699C99.4944 1.86339 99.3322 1.61986 99.038 1.4796Z" fill="#FFA320"/>
</svg>
