<svg width="48" height="48" viewBox="0 0 48 48" fill="none" xmlns="http://www.w3.org/2000/svg">
<g filter="url(#filter0_ddi_2002_5686)">
<rect x="4" y="2" width="40" height="40" rx="8" fill="white"/>
<rect x="4.5" y="2.5" width="39" height="39" rx="7.5" stroke="url(#paint0_linear_2002_5686)" stroke-opacity="0.3"/>
<g filter="url(#filter1_d_2002_5686)">
<path fill-rule="evenodd" clip-rule="evenodd" d="M14 22C14 16.4772 18.4772 12 24 12C29.5228 12 34 16.4772 34 22C34 27.5228 29.5228 32 24 32C22.6717 32 21.4015 31.7405 20.2392 31.2684C20.1342 31.2258 20.0736 31.2013 20.0289 31.1845C20.0236 31.1825 20.019 31.1808 20.015 31.1794L20.0103 31.18C19.9734 31.185 19.9231 31.1933 19.827 31.2093L16.2405 31.8071C16.0799 31.8339 15.9001 31.8639 15.744 31.8757C15.5739 31.8885 15.3031 31.893 15.017 31.7703C14.6633 31.6186 14.3814 31.3367 14.2297 30.983C14.107 30.6969 14.1115 30.4261 14.1243 30.256C14.1361 30.0999 14.1661 29.9202 14.1929 29.7596C14.1946 29.7499 14.1962 29.7403 14.1977 29.7308L14.7907 26.173C14.8067 26.0769 14.815 26.0266 14.82 25.9897L14.8206 25.9849C14.8192 25.981 14.8175 25.9764 14.8155 25.9711C14.7987 25.9264 14.7742 25.8658 14.7316 25.7608C14.2595 24.5985 14 23.3283 14 22Z" fill="url(#paint1_radial_2002_5686)" shape-rendering="crispEdges"/>
<path d="M20.1168 30.9504L20.1167 30.9504L20.1004 30.9444L20.0428 30.9235L19.982 30.9316L19.9773 30.9322L19.9767 30.9323C19.9351 30.9379 19.8804 30.947 19.7859 30.9627L16.1994 31.5605L16.1993 31.5605C16.0359 31.5878 15.8679 31.6156 15.7252 31.6264C15.5704 31.6381 15.3471 31.6398 15.1155 31.5405C14.8208 31.4141 14.5859 31.1792 14.4595 30.8845C14.3602 30.6529 14.3619 30.4296 14.3736 30.2748C14.3844 30.1321 14.4122 29.9642 14.4395 29.8007L14.4443 29.7719L14.1977 29.7308L14.4443 29.7719L15.0373 26.2141C15.0531 26.1196 15.0621 26.0649 15.0677 26.0233L15.0678 26.0227L15.0684 26.018L15.0765 25.9572L15.0556 25.8995L15.0496 25.8832C15.0313 25.8346 15.0053 25.7704 14.9632 25.6667C14.5031 24.5338 14.25 23.2955 14.25 22C14.25 16.6152 18.6152 12.25 24 12.25C29.3848 12.25 33.75 16.6152 33.75 22C33.75 27.3848 29.3848 31.75 24 31.75C22.7045 31.75 21.4662 31.4969 20.3333 31.0368C20.2296 30.9947 20.1654 30.9687 20.1168 30.9504Z" stroke="url(#paint2_linear_2002_5686)" stroke-width="0.5" shape-rendering="crispEdges"/>
</g>
</g>
<defs>
<filter id="filter0_ddi_2002_5686" x="0" y="0" width="48" height="48" filterUnits="userSpaceOnUse" color-interpolation-filters="sRGB">
<feFlood flood-opacity="0" result="BackgroundImageFix"/>
<feColorMatrix in="SourceAlpha" type="matrix" values="0 0 0 0 0 0 0 0 0 0 0 0 0 0 0 0 0 0 127 0" result="hardAlpha"/>
<feMorphology radius="1" operator="dilate" in="SourceAlpha" result="effect1_dropShadow_2002_5686"/>
<feOffset/>
<feComposite in2="hardAlpha" operator="out"/>
<feColorMatrix type="matrix" values="0 0 0 0 0.87451 0 0 0 0 0.882353 0 0 0 0 0.905882 0 0 0 1 0"/>
<feBlend mode="normal" in2="BackgroundImageFix" result="effect1_dropShadow_2002_5686"/>
<feColorMatrix in="SourceAlpha" type="matrix" values="0 0 0 0 0 0 0 0 0 0 0 0 0 0 0 0 0 0 127 0" result="hardAlpha"/>
<feMorphology radius="1" operator="erode" in="SourceAlpha" result="effect2_dropShadow_2002_5686"/>
<feOffset dy="2"/>
<feGaussianBlur stdDeviation="2.5"/>
<feComposite in2="hardAlpha" operator="out"/>
<feColorMatrix type="matrix" values="0 0 0 0 0.4 0 0 0 0 0.427451 0 0 0 0 0.501961 0 0 0 0.5 0"/>
<feBlend mode="normal" in2="effect1_dropShadow_2002_5686" result="effect2_dropShadow_2002_5686"/>
<feBlend mode="normal" in="SourceGraphic" in2="effect2_dropShadow_2002_5686" result="shape"/>
<feColorMatrix in="SourceAlpha" type="matrix" values="0 0 0 0 0 0 0 0 0 0 0 0 0 0 0 0 0 0 127 0" result="hardAlpha"/>
<feOffset dy="-4"/>
<feComposite in2="hardAlpha" operator="arithmetic" k2="-1" k3="1"/>
<feColorMatrix type="matrix" values="0 0 0 0 0.87451 0 0 0 0 0.882353 0 0 0 0 0.905882 0 0 0 0.7 0"/>
<feBlend mode="normal" in2="shape" result="effect3_innerShadow_2002_5686"/>
</filter>
<filter id="filter1_d_2002_5686" x="7" y="8" width="34" height="34" filterUnits="userSpaceOnUse" color-interpolation-filters="sRGB">
<feFlood flood-opacity="0" result="BackgroundImageFix"/>
<feColorMatrix in="SourceAlpha" type="matrix" values="0 0 0 0 0 0 0 0 0 0 0 0 0 0 0 0 0 0 127 0" result="hardAlpha"/>
<feOffset dy="3"/>
<feGaussianBlur stdDeviation="3.5"/>
<feComposite in2="hardAlpha" operator="out"/>
<feColorMatrix type="matrix" values="0 0 0 0 0 0 0 0 0 0 0 0 0 0 0 0 0 0 0.18 0"/>
<feBlend mode="normal" in2="BackgroundImageFix" result="effect1_dropShadow_2002_5686"/>
<feBlend mode="normal" in="SourceGraphic" in2="effect1_dropShadow_2002_5686" result="shape"/>
</filter>
<linearGradient id="paint0_linear_2002_5686" x1="24" y1="2" x2="24" y2="42" gradientUnits="userSpaceOnUse">
<stop offset="0.09375" stop-color="white" stop-opacity="0"/>
<stop offset="1" stop-color="white"/>
</linearGradient>
<radialGradient id="paint1_radial_2002_5686" cx="0" cy="0" r="1" gradientUnits="userSpaceOnUse" gradientTransform="translate(24 11.0476) rotate(90) scale(34.7619)">
<stop stop-color="#4E46DC"/>
<stop offset="1" stop-color="#4E46DC" stop-opacity="0.2"/>
</radialGradient>
<linearGradient id="paint2_linear_2002_5686" x1="24" y1="12" x2="24" y2="32" gradientUnits="userSpaceOnUse">
<stop offset="0.735221" stop-color="#4E46DC" stop-opacity="0"/>
<stop offset="1" stop-color="#4E46DC" stop-opacity="0.8"/>
</linearGradient>
</defs>
</svg>
