<svg width="48" height="48" viewBox="0 0 48 48" fill="none" xmlns="http://www.w3.org/2000/svg">
<g filter="url(#filter0_ddi_2002_5680)">
<g clip-path="url(#clip0_2002_5680)">
<rect x="4" y="2" width="40" height="40" rx="8" fill="white"/>
<g filter="url(#filter1_d_2002_5680)">
<path fill-rule="evenodd" clip-rule="evenodd" d="M13 22C13 15.9249 17.9249 11 24 11C30.0751 11 35 15.9249 35 22C35 28.0751 30.0751 33 24 33C17.9249 33 13 28.0751 13 22ZM25 16C25 15.4477 24.5523 15 24 15C23.4477 15 23 15.4477 23 16V22C23 22.3788 23.214 22.725 23.5528 22.8944L27.5528 24.8944C28.0468 25.1414 28.6474 24.9412 28.8944 24.4472C29.1414 23.9532 28.9412 23.3526 28.4472 23.1056L25 21.382V16Z" fill="url(#paint0_radial_2002_5680)" shape-rendering="crispEdges"/>
<path d="M13.25 22C13.25 16.0629 18.0629 11.25 24 11.25C29.9371 11.25 34.75 16.0629 34.75 22C34.75 27.9371 29.9371 32.75 24 32.75C18.0629 32.75 13.25 27.9371 13.25 22ZM25.25 16C25.25 15.3096 24.6904 14.75 24 14.75C23.3096 14.75 22.75 15.3096 22.75 16V22C22.75 22.4735 23.0175 22.9063 23.441 23.118L27.441 25.118C28.0585 25.4268 28.8093 25.1765 29.118 24.559C29.4268 23.9415 29.1765 23.1907 28.559 22.882L25.25 21.2275V16Z" stroke="url(#paint1_linear_2002_5680)" stroke-width="0.5" shape-rendering="crispEdges"/>
</g>
</g>
<rect x="4.5" y="2.5" width="39" height="39" rx="7.5" stroke="url(#paint2_linear_2002_5680)" stroke-opacity="0.3"/>
</g>
<defs>
<filter id="filter0_ddi_2002_5680" x="0" y="0" width="48" height="48" filterUnits="userSpaceOnUse" color-interpolation-filters="sRGB">
<feFlood flood-opacity="0" result="BackgroundImageFix"/>
<feColorMatrix in="SourceAlpha" type="matrix" values="0 0 0 0 0 0 0 0 0 0 0 0 0 0 0 0 0 0 127 0" result="hardAlpha"/>
<feMorphology radius="1" operator="dilate" in="SourceAlpha" result="effect1_dropShadow_2002_5680"/>
<feOffset/>
<feComposite in2="hardAlpha" operator="out"/>
<feColorMatrix type="matrix" values="0 0 0 0 0.87451 0 0 0 0 0.882353 0 0 0 0 0.905882 0 0 0 1 0"/>
<feBlend mode="normal" in2="BackgroundImageFix" result="effect1_dropShadow_2002_5680"/>
<feColorMatrix in="SourceAlpha" type="matrix" values="0 0 0 0 0 0 0 0 0 0 0 0 0 0 0 0 0 0 127 0" result="hardAlpha"/>
<feMorphology radius="1" operator="erode" in="SourceAlpha" result="effect2_dropShadow_2002_5680"/>
<feOffset dy="2"/>
<feGaussianBlur stdDeviation="2.5"/>
<feComposite in2="hardAlpha" operator="out"/>
<feColorMatrix type="matrix" values="0 0 0 0 0.4 0 0 0 0 0.427451 0 0 0 0 0.501961 0 0 0 0.5 0"/>
<feBlend mode="normal" in2="effect1_dropShadow_2002_5680" result="effect2_dropShadow_2002_5680"/>
<feBlend mode="normal" in="SourceGraphic" in2="effect2_dropShadow_2002_5680" result="shape"/>
<feColorMatrix in="SourceAlpha" type="matrix" values="0 0 0 0 0 0 0 0 0 0 0 0 0 0 0 0 0 0 127 0" result="hardAlpha"/>
<feOffset dy="-4"/>
<feComposite in2="hardAlpha" operator="arithmetic" k2="-1" k3="1"/>
<feColorMatrix type="matrix" values="0 0 0 0 0.87451 0 0 0 0 0.882353 0 0 0 0 0.905882 0 0 0 0.7 0"/>
<feBlend mode="normal" in2="shape" result="effect3_innerShadow_2002_5680"/>
</filter>
<filter id="filter1_d_2002_5680" x="6" y="7" width="36" height="36" filterUnits="userSpaceOnUse" color-interpolation-filters="sRGB">
<feFlood flood-opacity="0" result="BackgroundImageFix"/>
<feColorMatrix in="SourceAlpha" type="matrix" values="0 0 0 0 0 0 0 0 0 0 0 0 0 0 0 0 0 0 127 0" result="hardAlpha"/>
<feOffset dy="3"/>
<feGaussianBlur stdDeviation="3.5"/>
<feComposite in2="hardAlpha" operator="out"/>
<feColorMatrix type="matrix" values="0 0 0 0 0 0 0 0 0 0 0 0 0 0 0 0 0 0 0.18 0"/>
<feBlend mode="normal" in2="BackgroundImageFix" result="effect1_dropShadow_2002_5680"/>
<feBlend mode="normal" in="SourceGraphic" in2="effect1_dropShadow_2002_5680" result="shape"/>
</filter>
<radialGradient id="paint0_radial_2002_5680" cx="0" cy="0" r="1" gradientUnits="userSpaceOnUse" gradientTransform="translate(24 9.95238) rotate(90) scale(38.2381)">
<stop stop-color="#4E46DC"/>
<stop offset="1" stop-color="#4E46DC" stop-opacity="0.2"/>
</radialGradient>
<linearGradient id="paint1_linear_2002_5680" x1="24" y1="11" x2="24" y2="33" gradientUnits="userSpaceOnUse">
<stop offset="0.735221" stop-color="#4E46DC" stop-opacity="0"/>
<stop offset="1" stop-color="#4E46DC" stop-opacity="0.8"/>
</linearGradient>
<linearGradient id="paint2_linear_2002_5680" x1="24" y1="2" x2="24" y2="42" gradientUnits="userSpaceOnUse">
<stop offset="0.09375" stop-color="white" stop-opacity="0"/>
<stop offset="1" stop-color="white"/>
</linearGradient>
<clipPath id="clip0_2002_5680">
<rect x="4" y="2" width="40" height="40" rx="8" fill="white"/>
</clipPath>
</defs>
</svg>
