<svg width="40" height="40" viewBox="0 0 40 40" fill="none" xmlns="http://www.w3.org/2000/svg">
<rect width="40" height="40" rx="8" fill="white"/>
<rect x="0.5" y="0.5" width="39" height="39" rx="7.5" stroke="url(#paint0_linear_2028_2176)" stroke-opacity="0.3"/>
<g filter="url(#filter0_d_2028_2176)">
<path fill-rule="evenodd" clip-rule="evenodd" d="M11.418 26.3031C13.391 23.692 16.4987 22 19.9999 22C23.501 22 26.6087 23.692 28.5817 26.3031C28.5906 26.3149 28.5996 26.3268 28.6086 26.3386C28.7782 26.563 28.9601 26.8035 29.0901 27.0356C29.2474 27.3165 29.364 27.6414 29.3568 28.0366C29.351 28.3542 29.2548 28.6516 29.1379 28.8864C29.021 29.1212 28.8418 29.3772 28.5918 29.5734C28.2585 29.835 27.8956 29.9276 27.5732 29.9662C27.2904 30.0001 26.9552 30.0001 26.6182 30C26.603 30 26.5878 30 26.5726 30H13.4271C13.4119 30 13.3967 30 13.3815 30C13.0445 30.0001 12.7093 30.0001 12.4265 29.9662C12.1041 29.9276 11.7412 29.835 11.4079 29.5734C11.1579 29.3772 10.9787 29.1212 10.8618 28.8864C10.745 28.6516 10.6487 28.3542 10.6429 28.0366C10.6357 27.6414 10.7523 27.3165 10.9096 27.0356C11.0396 26.8035 11.2215 26.563 11.3911 26.3386C11.4001 26.3268 11.4091 26.3149 11.418 26.3031Z" fill="url(#paint1_radial_2028_2176)" shape-rendering="crispEdges"/>
<path fill-rule="evenodd" clip-rule="evenodd" d="M14.4999 15.5C14.4999 12.4624 16.9623 10 19.9999 10C23.0374 10 25.4999 12.4624 25.4999 15.5C25.4999 18.5376 23.0374 21 19.9999 21C16.9623 21 14.4999 18.5376 14.4999 15.5Z" fill="url(#paint2_radial_2028_2176)" shape-rendering="crispEdges"/>
<path d="M11.6175 26.4538L11.418 26.3031L11.6175 26.4538C13.5459 23.9016 16.5815 22.25 19.9999 22.25C23.4182 22.25 26.4538 23.9016 28.3822 26.4538L28.4092 26.4894C28.5813 26.7171 28.752 26.9435 28.872 27.1578C29.014 27.4113 29.1131 27.6925 29.1069 28.032C29.1019 28.3036 29.0189 28.5643 28.9141 28.775C28.8092 28.9857 28.6512 29.209 28.4375 29.3767C28.1536 29.5995 27.8409 29.6823 27.5434 29.718C27.2785 29.7498 26.9596 29.7501 26.6182 29.75L26.5726 29.75H13.4271L13.3815 29.75C13.0402 29.7501 12.7212 29.7498 12.4563 29.718C12.1588 29.6823 11.8461 29.5995 11.5622 29.3767C11.3485 29.209 11.1905 28.9857 11.0856 28.775C10.9808 28.5643 10.8978 28.3036 10.8929 28.032C10.8866 27.6925 10.9857 27.4113 11.1277 27.1578C11.2477 26.9435 11.4184 26.7171 11.5905 26.4894L11.6175 26.4538ZM14.7499 15.5C14.7499 12.6005 17.1004 10.25 19.9999 10.25C22.8993 10.25 25.2499 12.6005 25.2499 15.5C25.2499 18.3995 22.8993 20.75 19.9999 20.75C17.1004 20.75 14.7499 18.3995 14.7499 15.5Z" stroke="url(#paint3_linear_2028_2176)" stroke-width="0.5" stroke-linejoin="round" shape-rendering="crispEdges"/>
</g>
<defs>
<filter id="filter0_d_2028_2176" x="3.64258" y="6" width="32.7144" height="34" filterUnits="userSpaceOnUse" color-interpolation-filters="sRGB">
<feFlood flood-opacity="0" result="BackgroundImageFix"/>
<feColorMatrix in="SourceAlpha" type="matrix" values="0 0 0 0 0 0 0 0 0 0 0 0 0 0 0 0 0 0 127 0" result="hardAlpha"/>
<feOffset dy="3"/>
<feGaussianBlur stdDeviation="3.5"/>
<feComposite in2="hardAlpha" operator="out"/>
<feColorMatrix type="matrix" values="0 0 0 0 0 0 0 0 0 0 0 0 0 0 0 0 0 0 0.18 0"/>
<feBlend mode="normal" in2="BackgroundImageFix" result="effect1_dropShadow_2028_2176"/>
<feBlend mode="normal" in="SourceGraphic" in2="effect1_dropShadow_2028_2176" result="shape"/>
</filter>
<linearGradient id="paint0_linear_2028_2176" x1="20" y1="0" x2="20" y2="40" gradientUnits="userSpaceOnUse">
<stop offset="0.09375" stop-color="white" stop-opacity="0"/>
<stop offset="1" stop-color="white"/>
</linearGradient>
<radialGradient id="paint1_radial_2028_2176" cx="0" cy="0" r="1" gradientUnits="userSpaceOnUse" gradientTransform="translate(19.9999 9.04762) rotate(90) scale(34.7619 32.5277)">
<stop stop-color="#4E46DC"/>
<stop offset="1" stop-color="#4E46DC" stop-opacity="0.2"/>
</radialGradient>
<radialGradient id="paint2_radial_2028_2176" cx="0" cy="0" r="1" gradientUnits="userSpaceOnUse" gradientTransform="translate(19.9999 9.04762) rotate(90) scale(34.7619 32.5277)">
<stop stop-color="#4E46DC"/>
<stop offset="1" stop-color="#4E46DC" stop-opacity="0.2"/>
</radialGradient>
<linearGradient id="paint3_linear_2028_2176" x1="19.9999" y1="10" x2="19.9999" y2="30" gradientUnits="userSpaceOnUse">
<stop offset="0.735221" stop-color="#4E46DC" stop-opacity="0"/>
<stop offset="1" stop-color="#4E46DC" stop-opacity="0.8"/>
</linearGradient>
</defs>
</svg>
